<svg xmlns="http://www.w3.org/2000/svg" viewBox="0 0 1134 709"><g fill="none" stroke="gray" stroke-width="2"><path d="M402.85 146.38a17.04 17.04 0 0 0-17.04-17.04 17.04 17.04 0 0 0-17.04 17.04 17.04 17.04 0 0 0 17.04 17.04 17.04 17.04 0 0 0 17.04-17.04m358.02 4.51a17.04 17.04 0 0 0-17.04-17.04 17.04 17.04 0 0 0-17.04 17.04 17.04 17.04 0 0 0 17.04 17.04 17.04 17.04 0 0 0 17.04-17.04m-358.15 37.94a17.03 17.03 0 0 0-17.03-17.03 17.03 17.03 0 0 0-17.03 17.03 17.03 17.03 0 0 0 17.03 17.03 17.03 17.03 0 0 0 17.03-17.03m358.87 3.71a17.05 17.05 0 0 0-17.05-17.05 17.05 17.05 0 0 0-17.05 17.05 17.05 17.05 0 0 0 17.05 17.05 17.05 17.05 0 0 0 17.05-17.05M402.6 231.3a17.05 17.05 0 0 0-17.05-17.05 17.05 17.05 0 0 0-17.05 17.05 17.05 17.05 0 0 0 17.05 17.05 17.05 17.05 0 0 0 17.05-17.05m359.66 2.91a17.04 17.04 0 0 0-17.04-17.04 17.04 17.04 0 0 0-17.04 17.04 17.04 17.04 0 0 0 17.04 17.04 17.04 17.04 0 0 0 17.04-17.04m-497.08 4.98a17.06 17.06 0 0 0-17.06-17.06 17.06 17.06 0 0 0-17.06 17.06 17.06 17.06 0 0 0 17.06 17.06 17.06 17.06 0 0 0 17.06-17.06m211.16.53a17.02 17.02 0 0 0-17.02-17.02 17.02 17.02 0 0 0-17.02 17.02 17.02 17.02 0 0 0 17.02 17.02 17.02 17.02 0 0 0 17.02-17.02m208.75 1.19a17.06 17.06 0 0 0-17.06-17.06 17.06 17.06 0 0 0-17.06 17.06 17.06 17.06 0 0 0 17.06 17.06 17.06 17.06 0 0 0 17.06-17.06m-169.57 7.1a17.02 17.02 0 0 0-17.02-17.02 17.02 17.02 0 0 0-17.02 17.02 17.02 17.02 0 0 0 17.02 17.02 17.02 17.02 0 0 0 17.02-17.02m-209.65.58a17.03 17.03 0 0 0-17.03-17.03 17.03 17.03 0 0 0-17.03 17.03 17.03 17.03 0 0 0 17.03 17.03 17.03 17.03 0 0 0 17.03-17.03m337.09.95a17.04 17.04 0 0 0-17.04-17.04 17.04 17.04 0 0 0-17.04 17.04 17.04 17.04 0 0 0 17.04 17.04 17.04 17.04 0 0 0 17.04-17.04M225 250.85a17.06 17.06 0 0 0-17.06-17.06 17.06 17.06 0 0 0-17.06 17.06 17.06 17.06 0 0 0 17.06 17.06A17.06 17.06 0 0 0 225 250.85m213.16 1.84a17.02 17.02 0 0 0-17.02-17.02 17.02 17.02 0 0 0-17.02 17.02 17.02 17.02 0 0 0 17.02 17.02 17.02 17.02 0 0 0 17.02-17.02m287.49.56a17.05 17.05 0 0 0-17.05-17.05 17.05 17.05 0 0 0-17.05 17.05 17.05 17.05 0 0 0 17.05 17.05 17.05 17.05 0 0 0 17.05-17.05m-323.18 20.52a17.03 17.03 0 0 0-17.03-17.03 17.03 17.03 0 0 0-17.03 17.03 17.03 17.03 0 0 0 17.03 17.03 17.03 17.03 0 0 0 17.03-17.03m-66.66 4.16a17.04 17.04 0 0 0-17.04-17.04 17.04 17.04 0 0 0-17.04 17.04 17.04 17.04 0 0 0 17.04 17.04 17.04 17.04 0 0 0 17.04-17.04m427.15.08a17.04 17.04 0 0 0-17.04-17.04 17.04 17.04 0 0 0-17.04 17.04 17.04 17.04 0 0 0 17.04 17.04 17.04 17.04 0 0 0 17.04-17.04m-151.13.38a17.04 17.04 0 0 0-17.04-17.04 17.04 17.04 0 0 0-17.04 17.04 17.04 17.04 0 0 0 17.04 17.04 17.04 17.04 0 0 0 17.04-17.04m-71.19.38a17.03 17.03 0 0 0-17.03-17.03 17.03 17.03 0 0 0-17.03 17.03 17.03 17.03 0 0 0 17.03 17.03 17.03 17.03 0 0 0 17.03-17.03m-345.38 1.48a17.02 17.02 0 0 0-17.02-17.02 17.02 17.02 0 0 0-17.02 17.02 17.02 17.02 0 0 0 17.02 17.02 17.02 17.02 0 0 0 17.02-17.02m207.11 35.95a17.03 17.03 0 0 0-17.03-17.03 17.03 17.03 0 0 0-17.03 17.03 17.03 17.03 0 0 0 17.03 17.03 17.03 17.03 0 0 0 17.03-17.03m-55.88 1.09a17.04 17.04 0 0 0-17.04-17.04 17.04 17.04 0 0 0-17.04 17.04 17.04 17.04 0 0 0 17.04 17.04 17.04 17.04 0 0 0 17.04-17.04m201.51.33a17.05 17.05 0 0 0-17.05-17.05 17.05 17.05 0 0 0-17.05 17.05 17.05 17.05 0 0 0 17.05 17.05A17.05 17.05 0 0 0 548 317.62m51.24 1.81a17.05 17.05 0 0 0-17.05-17.05 17.05 17.05 0 0 0-17.05 17.05 17.05 17.05 0 0 0 17.05 17.05 17.05 17.05 0 0 0 17.05-17.05m164.4.23a17.04 17.04 0 0 0-17.04-17.04 17.04 17.04 0 0 0-17.04 17.04 17.04 17.04 0 0 0 17.04 17.04 17.04 17.04 0 0 0 17.04-17.04m-579.33.09a17.03 17.03 0 0 0-17.03-17.03 17.03 17.03 0 0 0-17.03 17.03 17.03 17.03 0 0 0 17.03 17.03 17.03 17.03 0 0 0 17.03-17.03m363.91 38.81a17.04 17.04 0 0 0-17.04-17.04 17.04 17.04 0 0 0-17.04 17.04 17.04 17.04 0 0 0 17.04 17.04 17.04 17.04 0 0 0 17.04-17.04m-145.97.1a17.04 17.04 0 0 0-17.04-17.04 17.04 17.04 0 0 0-17.04 17.04 17.04 17.04 0 0 0 17.04 17.04 17.04 17.04 0 0 0 17.04-17.04m-206.23.61a17.05 17.05 0 0 0-17.05-17.05 17.05 17.05 0 0 0-17.05 17.05 17.05 17.05 0 0 0 17.05 17.05 17.05 17.05 0 0 0 17.05-17.05m414.32.49a17.04 17.04 0 0 0-17.04-17.04 17.04 17.04 0 0 0-17.04 17.04 17.04 17.04 0 0 0 17.04 17.04 17.04 17.04 0 0 0 17.04-17.04m141.7.86a17.05 17.05 0 0 0-17.05-17.05 17.05 17.05 0 0 0-17.05 17.05 17.05 17.05 0 0 0 17.05 17.05 17.05 17.05 0 0 0 17.05-17.05m-407.29.38a17.05 17.05 0 0 0-17.05-17.05A17.05 17.05 0 0 0 310.65 361a17.05 17.05 0 0 0 17.05 17.05A17.05 17.05 0 0 0 344.75 361M224.9 389.2a17.02 17.02 0 0 0-17.02-17.02 17.02 17.02 0 0 0-17.02 17.02 17.02 17.02 0 0 0 17.02 17.02 17.02 17.02 0 0 0 17.02-17.02m81.03.38a17.04 17.04 0 0 0-17.04-17.04 17.04 17.04 0 0 0-17.04 17.04 17.04 17.04 0 0 0 17.04 17.04 17.04 17.04 0 0 0 17.04-17.04m334.05 0a17.03 17.03 0 0 0-17.03-17.03 17.03 17.03 0 0 0-17.03 17.03 17.03 17.03 0 0 0 17.03 17.03 17.03 17.03 0 0 0 17.03-17.03m81.79.8a17.04 17.04 0 0 0-17.04-17.04 17.04 17.04 0 0 0-17.04 17.04 17.04 17.04 0 0 0 17.04 17.04 17.04 17.04 0 0 0 17.04-17.04M266 399.82a17.03 17.03 0 0 0-17.03-17.03 17.03 17.03 0 0 0-17.03 17.03 17.03 17.03 0 0 0 17.03 17.03A17.03 17.03 0 0 0 266 399.82m281.56.55a17.04 17.04 0 0 0-17.04-17.04 17.04 17.04 0 0 0-17.04 17.04 17.04 17.04 0 0 0 17.04 17.04 17.04 17.04 0 0 0 17.04-17.04m-145.42.74a17.05 17.05 0 0 0-17.05-17.05 17.05 17.05 0 0 0-17.05 17.05 17.05 17.05 0 0 0 17.05 17.05 17.05 17.05 0 0 0 17.05-17.05m278.73.12a17.04 17.04 0 0 0-17.04-17.04 17.04 17.04 0 0 0-17.04 17.04 17.04 17.04 0 0 0 17.04 17.04 17.04 17.04 0 0 0 17.04-17.04m-335.96 1.27a17.02 17.02 0 0 0-17.02-17.02 17.02 17.02 0 0 0-17.02 17.02 17.02 17.02 0 0 0 17.02 17.02 17.02 17.02 0 0 0 17.02-17.02m-3.2 40.49a17.05 17.05 0 0 0-17.05-17.05 17.05 17.05 0 0 0-17.05 17.05 17.05 17.05 0 0 0 17.05 17.05 17.05 17.05 0 0 0 17.05-17.05m154.8 54.94-.01 3.57a.99.99 0 0 0 .99 1h.37a.64.64 0 0 0 .64-.64v-45.19a.64.64 0 0 0-.61-.64l-.37-.02a1 1 0 0 0-1.04 1.01l.06 16.44q.01 2.61-1.46.45-3.19-4.69-9.11-5.45c-21.01-2.71-22.27 31.92-4.73 34.53q8.78 1.3 13.82-5.54 1.46-1.97 1.45.48m25.66-25.45q-.41-7.59-.1-15.22c.03-.79-.15-1.3-.98-1.34a.8.79-88.3 0 0-.84.8v45.33a.81.8 2.3 0 0 .74.8q1.17.09 1.13-1.34-.39-11.6.33-20.77c.89-11.4 17.14-15.64 20.97-4.55 2.12 6.15.83 18.66.85 25.72a.81.81 0 0 0 .65.79l.34.06a.42.41 5.3 0 0 .49-.4q-.01-10.34.01-20.71c.03-8.8-4.18-14.63-14.03-13.37q-5.09.65-8.13 4.64-1.32 1.74-1.43-.44m67.865-15.91a.55.55 0 0 0-.543-.556l-.54-.007a.55.55 0 0 0-.557.543l-.07 5.74a.55.55 0 0 0 .543.556l.54.007a.55.55 0 0 0 .557-.543l.07-5.74m66.975 40.91-.02 4.82a.42.41 2.3 0 0 .39.41l.31.02a1 1 0 0 0 1.06-1q-.02-22.46.02-44.92.01-1.36-1.18-.83a1 .99 78.2 0 0-.59.91v19.36a.21.08 87.9 0 1-.06.19l-.19.06a.36.15 68.3 0 1-.27-.27q-2.71-6.86-9.55-7.88c-21.55-3.23-23.03 31.86-5.85 34.55q9.57 1.49 14.46-5.86 1.48-2.22 1.47.44m265.99 0q.03 2.19-.01 4.38c-.01.7.57 1.25 1.17.81a1 1 0 0 0 .4-.8l.16-45.07a.8.8 0 0 0-.8-.8h-.28a.64.64 0 0 0-.64.64v19.06a.33.33 0 0 1-.28.33q-.32.04-.46-.27c-3.61-7.78-13.73-9.99-20.34-5.14-9.06 6.66-8.89 25.29 1.35 30.99q6.13 3.41 13.19.08 2.91-1.37 5.07-4.64 1.44-2.18 1.47.43m-595.86-15.91a17.03 17.03 0 0 0-17.03-17.03 17.03 17.03 0 0 0-17.03 17.03 17.03 17.03 0 0 0 17.03 17.03 17.03 17.03 0 0 0 17.03-17.03m68.46 14.1q-.12 3.7-.22 7.39c-.38 13.11-22.64 12.85-22.93 1.47a1.02 1.01-76 0 0-.5-.84c-1.51-.87-1.53 1.16-1.34 2.06 1.84 8.53 10.9 10.08 18.12 8.15 6.19-1.66 8.64-6.28 8.7-12.42q.15-15.71.04-31.47a1 .99-85.1 0 0-.81-.97q-1.7-.33-1.13 2.22.16.72.05 2.01-.18 2.2-1.45.39-2.6-3.7-6.64-4.89c-14.36-4.24-22.03 11.12-17.69 22.69 3.21 8.54 12.95 12 20.71 6.94q2.07-1.35 3.68-3.27 1.49-1.77 1.41.54m21.79 7.68a17.69 15.31 89.9 0 0 15.28-17.717 17.69 15.31 89.9 0 0-15.34-17.663 17.69 15.31 89.9 0 0-15.28 17.717 17.69 15.31 89.9 0 0 15.34 17.663" vector-effect="non-scaling-stroke"/><path d="M450.902 503.37a17.71 15.28 89.8 0 0 15.218-17.763 17.71 15.28 89.8 0 0-15.342-17.657 17.71 15.28 89.8 0 0-15.218 17.763 17.71 15.28 89.8 0 0 15.342 17.657M578.42 495l.06 7.15a.65.65 0 0 0 .43.6c.81.28 1.09-.28 1.09-1.02q.01-15.75-.01-31.5c0-.64-.4-1.21-1.09-.98a.81.8-9 0 0-.56.76l.04 4.33q.02 1.96-1.15.39-.24-.32-.45-.66c-2.95-4.74-8.47-6.65-13.66-5.78-17.8 2.96-16.4 37.18 4.14 34.69q7.48-.91 10.64-8.01c.03-.08.21-.2.29-.21a.25.21 86.5 0 1 .23.24m23.21-22.66.19-2.13a.99.99 0 0 0-.77-1.06l-.33-.08a1 1 0 0 0-1.22.98v31.54a1.01 1 8.1 0 0 .73.96l.4.11a.63.63 0 0 0 .81-.6q.17-8.77.31-17.53c.13-8.51 2.88-14.34 12.14-14.86a.98.94-64.9 0 0 .59-.23c.93-.79-.37-1.23-.98-1.24q-6.59-.07-10.45 4.71-1.65 2.05-1.42-.57m90.04 22.69c-.19 2.27-1.01 9.11 1.39 7.49a.98.98 0 0 0 .44-.82v-31.19a1 1 0 0 0-.95-1l-.25-.01a.8.8 0 0 0-.85.82l.19 5.68a.46.02 88.5 0 1-.01.44q-.16.19-.32-.18c-3.7-8.54-14.96-10.84-21.7-4.88-5.71 5.04-6.73 15.43-4.21 22.45 4.18 11.59 20.71 12.91 25.86 1.12q.08-.18.21-.19a.25.18 89.7 0 1 .2.27m52.99-4.73c1.64 16.68 25.5 17.2 28.51 1.7.14-.73.24-2.39-1.12-1.57a.99.98-9.7 0 0-.45.63q-2.24 9.4-10.86 10.22c-9.92.94-13.87-5.17-14.72-14.19a.99.99 0 0 1 .99-1.09h25.76a1 1 0 0 0 1-.98q.1-5.2-1.3-7.98-5.39-10.79-16.14-8.52c-10.6 2.23-12.57 12.54-11.67 21.78m59.9-3.2a1 1 0 0 1 .99-1.1h25.79a1 1 0 0 0 1-1q0-5.33-2.45-9.88c-3.97-7.38-13.83-9.07-20.19-4.53-6.93 4.96-7.81 14.16-5.91 22.15 3.56 14.99 26.4 13.36 27.99-1.55a.8.79-71.8 0 0-.39-.78q-1.01-.59-1.31.85c-2.69 13.27-21.48 13.91-24.73.44q-.57-2.37-.79-4.6m34.2-14.34-.02-2.77a.99.99 0 0 0-.94-.99l-.26-.02a.51.51 0 0 0-.54.51v32.49a.8.78-78.9 0 0 .48.73c1.09.47 1.31-.42 1.3-1.29q-.12-9.32.08-18.58c.15-6.49 4.66-13.86 12.03-12.92a.99.98 19 0 0 .97-.47q.69-1.12-1.09-1.17-6.91-.19-10.56 4.94-1.44 2.02-1.45-.46m118.77 24.57-.05 4.49a.8.8 0 0 0 1.08.76l.3-.11a1.01 1.01 0 0 0 .64-.94v-31.14a1.01 1-87.2 0 0-.9-1l-.28-.02a.8.8 0 0 0-.88.82l.2 5.82a.45.02 87.1 0 1 0 .43q-.16.19-.33-.19-3.05-6.9-10.57-7.83c-22.55-2.78-21.95 37.23-.6 34.57q5.88-.73 9.95-6.15 1.47-1.96 1.44.49m-367.587-27.883a.44.44 0 0 0-.442-.438l-.82.002a.44.44 0 0 0-.438.442l.114 32.82a.44.44 0 0 0 .442.438l.82-.002a.44.44 0 0 0 .438-.442l-.114-32.82M710.06 497.86q-9.75-23.73-11.82-28.36-.37-.84-1.18-.65a.81.8-18.4 0 0-.55 1.09l13.17 31.26a1.05 1.02 41.2 0 1 .05.61c-1.11 5.03-2.71 10.23-8.84 10.38a.99.99 0 0 0-.75.37q-.79.99.62 1.18c3.98.54 6.96-1.27 8.48-5.14q7.55-19.23 14.84-38.57a.8.8 0 0 0-.45-1.03c-.81-.31-1.28.48-1.54 1.19q-5.05 13.91-10.54 27.67-.74 1.83-1.49 0m77.99.66-11.62-28.89a1.02 1.01 77.6 0 0-.98-.63l-.43.02a.64.64 0 0 0-.56.89q6.63 15.98 13.15 32.01c.61 1.48 2.12.86 2.62-.46q5.99-15.67 11.8-31.42.52-1.39-.96-1.13a1.01.99-84.7 0 0-.76.64l-10.77 28.95q-.72 1.94-1.49.02m79.33 4.08-3.39 7.84a1 .98-1 0 1-.5.51c-.14.07-9.09 2.15-5.39 2.72 5.02.78 7.45-1.59 9.22-6.2q7.11-18.48 14.04-37.02.88-2.37-1.07-1.09a1.05 1.04-6.1 0 0-.39.48l-10.65 28.09q-.71 1.88-1.48.03l-11.82-28.28a.99.89 7.7 0 0-.38-.45c-1.36-.88-1.76.17-1.27 1.28q6.8 15.56 13.09 31.32a1 .96-45.5 0 1-.01.77m109.36-4.56-11.82-28.4a1 1 0 0 0-1.08-.61l-.4.06a.51.51 0 0 0-.39.71l13.3 31.64a1.03 1.01-49.1 0 1 .04.68c-1.44 4.83-2.86 10.29-9.12 10.07a.99.99 0 0 0-.6.18c-1.34.9.06 1.34.82 1.4 4.78.4 7.07-1.76 8.78-6.19q7.29-18.87 14.49-37.79a.52.52 0 0 0-.4-.69l-.38-.06a1.01 1.01 0 0 0-1.09.64l-10.66 28.33q-.71 1.89-1.49.03m-680.6 11.45a17.03 17.03 0 0 0-17.03-17.03 17.03 17.03 0 0 0-17.03 17.03 17.03 17.03 0 0 0 17.03 17.03 17.03 17.03 0 0 0 17.03-17.03m427.3-13.89c-.7.84-.53 4.73-.48 5.9q.14 3.65-1.6 6.88a1.01 1.01 0 0 0-.02.91c.52 1.07 1.68-.02 1.95-.71q2.55-6.39 1.16-12.59-.29-1.26-1.01-.39M256.9 521.62a17.04 17.04 0 0 0-17.04-17.04 17.04 17.04 0 0 0-17.04 17.04 17.04 17.04 0 0 0 17.04 17.04 17.04 17.04 0 0 0 17.04-17.04m226.406-20.067a15.98 12.99 91.7 0 0 13.458-15.588 15.98 12.99 91.7 0 0-12.51-16.358 15.98 12.99 91.7 0 0-13.458 15.588 15.98 12.99 91.7 0 0 12.51 16.358m160.291-.01a15.95 13.01 91.7 0 0 13.477-15.557 15.95 13.01 91.7 0 0-12.53-16.329 15.95 13.01 91.7 0 0-13.478 15.557 15.95 13.01 91.7 0 0 12.53 16.329m265.951.01a15.96 12.99 91.7 0 0 13.457-15.568 15.96 12.99 91.7 0 0-12.51-16.338 15.96 12.99 91.7 0 0-13.458 15.568 15.96 12.99 91.7 0 0 12.51 16.338m-526.812-2.475a14.68 12.66 91 0 0 12.914-14.457 14.68 12.66 91 0 0-12.402-14.899 14.68 12.66 91 0 0-12.914 14.457 14.68 12.66 91 0 0 12.402 14.899m34.636 2.422a15.87 13.47 90 0 0 13.47-15.87 15.87 13.47 90 0 0-13.47-15.87 15.87 13.47 90 0 0-13.47 15.87 15.87 13.47 90 0 0 13.47 15.87" vector-effect="non-scaling-stroke"/><path d="M450.777 501.52a15.88 13.45 90.3 0 0 13.533-15.81 15.88 13.45 90.3 0 0-13.367-15.95 15.88 13.45 90.3 0 0-13.533 15.81 15.88 13.45 90.3 0 0 13.367 15.95m114.207.054a15.97 13 91.6 0 0 13.44-15.601 15.97 13 91.6 0 0-12.548-16.327 15.97 13 91.6 0 0-13.44 15.601 15.97 13 91.6 0 0 12.548 16.327m113.27-.01a15.97 13.01 91.6 0 0 13.45-15.6 15.97 13.01 91.6 0 0-12.558-16.328 15.97 13.01 91.6 0 0-13.45 15.6 15.97 13.01 91.6 0 0 12.558 16.328m68.926-17.284 23.76-.04a.99.99 0 0 0 .99-1.04q-.31-7.29-5.51-11.13c-5.46-4.02-12.74-2.53-16.88 2.61q-2.91 3.61-3.36 8.51a1 1 0 0 0 1 1.09m82.19.01a1 .99 89.7 0 0 1-1.02q-.19-7.76-6.04-11.45c-5.59-3.53-12.52-2.25-16.48 3.04q-2.52 3.35-3.16 8.24a1.01 1-86.4 0 0 .99 1.13l23.69.06m114.789 17.272a15.96 13 91.8 0 0 13.495-15.544 15.96 13 91.8 0 0-12.493-16.36 15.96 13 91.8 0 0-13.495 15.544 15.96 13 91.8 0 0 12.493 16.36" vector-effect="non-scaling-stroke"/></g><path fill="#fff" d="M0 0h1134v709H0V0Zm402.85 146.38a17.04 17.04 0 0 0-17.04-17.04 17.04 17.04 0 0 0-17.04 17.04 17.04 17.04 0 0 0 17.04 17.04 17.04 17.04 0 0 0 17.04-17.04Zm358.02 4.51a17.04 17.04 0 0 0-17.04-17.04 17.04 17.04 0 0 0-17.04 17.04 17.04 17.04 0 0 0 17.04 17.04 17.04 17.04 0 0 0 17.04-17.04Zm-358.15 37.94a17.03 17.03 0 0 0-17.03-17.03 17.03 17.03 0 0 0-17.03 17.03 17.03 17.03 0 0 0 17.03 17.03 17.03 17.03 0 0 0 17.03-17.03Zm358.87 3.71a17.05 17.05 0 0 0-17.05-17.05 17.05 17.05 0 0 0-17.05 17.05 17.05 17.05 0 0 0 17.05 17.05 17.05 17.05 0 0 0 17.05-17.05ZM402.6 231.3a17.05 17.05 0 0 0-17.05-17.05 17.05 17.05 0 0 0-17.05 17.05 17.05 17.05 0 0 0 17.05 17.05 17.05 17.05 0 0 0 17.05-17.05Zm359.66 2.91a17.04 17.04 0 0 0-17.04-17.04 17.04 17.04 0 0 0-17.04 17.04 17.04 17.04 0 0 0 17.04 17.04 17.04 17.04 0 0 0 17.04-17.04Zm-497.08 4.98a17.06 17.06 0 0 0-17.06-17.06 17.06 17.06 0 0 0-17.06 17.06 17.06 17.06 0 0 0 17.06 17.06 17.06 17.06 0 0 0 17.06-17.06Zm211.16.53a17.02 17.02 0 0 0-17.02-17.02 17.02 17.02 0 0 0-17.02 17.02 17.02 17.02 0 0 0 17.02 17.02 17.02 17.02 0 0 0 17.02-17.02Zm208.75 1.19a17.06 17.06 0 0 0-17.06-17.06 17.06 17.06 0 0 0-17.06 17.06 17.06 17.06 0 0 0 17.06 17.06 17.06 17.06 0 0 0 17.06-17.06Zm-169.57 7.1a17.02 17.02 0 0 0-17.02-17.02 17.02 17.02 0 0 0-17.02 17.02 17.02 17.02 0 0 0 17.02 17.02 17.02 17.02 0 0 0 17.02-17.02Zm-209.65.58a17.03 17.03 0 0 0-17.03-17.03 17.03 17.03 0 0 0-17.03 17.03 17.03 17.03 0 0 0 17.03 17.03 17.03 17.03 0 0 0 17.03-17.03Zm337.09.95a17.04 17.04 0 0 0-17.04-17.04 17.04 17.04 0 0 0-17.04 17.04 17.04 17.04 0 0 0 17.04 17.04 17.04 17.04 0 0 0 17.04-17.04ZM225 250.85a17.06 17.06 0 0 0-17.06-17.06 17.06 17.06 0 0 0-17.06 17.06 17.06 17.06 0 0 0 17.06 17.06A17.06 17.06 0 0 0 225 250.85Zm213.16 1.84a17.02 17.02 0 0 0-17.02-17.02 17.02 17.02 0 0 0-17.02 17.02 17.02 17.02 0 0 0 17.02 17.02 17.02 17.02 0 0 0 17.02-17.02Zm287.49.56a17.05 17.05 0 0 0-17.05-17.05 17.05 17.05 0 0 0-17.05 17.05 17.05 17.05 0 0 0 17.05 17.05 17.05 17.05 0 0 0 17.05-17.05Zm-323.18 20.52a17.03 17.03 0 0 0-17.03-17.03 17.03 17.03 0 0 0-17.03 17.03 17.03 17.03 0 0 0 17.03 17.03 17.03 17.03 0 0 0 17.03-17.03Zm-66.66 4.16a17.04 17.04 0 0 0-17.04-17.04 17.04 17.04 0 0 0-17.04 17.04 17.04 17.04 0 0 0 17.04 17.04 17.04 17.04 0 0 0 17.04-17.04Zm427.15.08a17.04 17.04 0 0 0-17.04-17.04 17.04 17.04 0 0 0-17.04 17.04 17.04 17.04 0 0 0 17.04 17.04 17.04 17.04 0 0 0 17.04-17.04Zm-151.13.38a17.04 17.04 0 0 0-17.04-17.04 17.04 17.04 0 0 0-17.04 17.04 17.04 17.04 0 0 0 17.04 17.04 17.04 17.04 0 0 0 17.04-17.04Zm-71.19.38a17.03 17.03 0 0 0-17.03-17.03 17.03 17.03 0 0 0-17.03 17.03 17.03 17.03 0 0 0 17.03 17.03 17.03 17.03 0 0 0 17.03-17.03Zm-345.38 1.48a17.02 17.02 0 0 0-17.02-17.02 17.02 17.02 0 0 0-17.02 17.02 17.02 17.02 0 0 0 17.02 17.02 17.02 17.02 0 0 0 17.02-17.02Zm207.11 35.95a17.03 17.03 0 0 0-17.03-17.03 17.03 17.03 0 0 0-17.03 17.03 17.03 17.03 0 0 0 17.03 17.03 17.03 17.03 0 0 0 17.03-17.03Zm-55.88 1.09a17.04 17.04 0 0 0-17.04-17.04 17.04 17.04 0 0 0-17.04 17.04 17.04 17.04 0 0 0 17.04 17.04 17.04 17.04 0 0 0 17.04-17.04Zm201.51.33a17.05 17.05 0 0 0-17.05-17.05 17.05 17.05 0 0 0-17.05 17.05 17.05 17.05 0 0 0 17.05 17.05A17.05 17.05 0 0 0 548 317.62Zm51.24 1.81a17.05 17.05 0 0 0-17.05-17.05 17.05 17.05 0 0 0-17.05 17.05 17.05 17.05 0 0 0 17.05 17.05 17.05 17.05 0 0 0 17.05-17.05Zm164.4.23a17.04 17.04 0 0 0-17.04-17.04 17.04 17.04 0 0 0-17.04 17.04 17.04 17.04 0 0 0 17.04 17.04 17.04 17.04 0 0 0 17.04-17.04Zm-579.33.09a17.03 17.03 0 0 0-17.03-17.03 17.03 17.03 0 0 0-17.03 17.03 17.03 17.03 0 0 0 17.03 17.03 17.03 17.03 0 0 0 17.03-17.03Zm363.91 38.81a17.04 17.04 0 0 0-17.04-17.04 17.04 17.04 0 0 0-17.04 17.04 17.04 17.04 0 0 0 17.04 17.04 17.04 17.04 0 0 0 17.04-17.04Zm-145.97.1a17.04 17.04 0 0 0-17.04-17.04 17.04 17.04 0 0 0-17.04 17.04 17.04 17.04 0 0 0 17.04 17.04 17.04 17.04 0 0 0 17.04-17.04Zm-206.23.61a17.05 17.05 0 0 0-17.05-17.05 17.05 17.05 0 0 0-17.05 17.05 17.05 17.05 0 0 0 17.05 17.05 17.05 17.05 0 0 0 17.05-17.05Zm414.32.49a17.04 17.04 0 0 0-17.04-17.04 17.04 17.04 0 0 0-17.04 17.04 17.04 17.04 0 0 0 17.04 17.04 17.04 17.04 0 0 0 17.04-17.04Zm141.7.86a17.05 17.05 0 0 0-17.05-17.05 17.05 17.05 0 0 0-17.05 17.05 17.05 17.05 0 0 0 17.05 17.05 17.05 17.05 0 0 0 17.05-17.05Zm-407.29.38a17.05 17.05 0 0 0-17.05-17.05A17.05 17.05 0 0 0 310.65 361a17.05 17.05 0 0 0 17.05 17.05A17.05 17.05 0 0 0 344.75 361ZM224.9 389.2a17.02 17.02 0 0 0-17.02-17.02 17.02 17.02 0 0 0-17.02 17.02 17.02 17.02 0 0 0 17.02 17.02 17.02 17.02 0 0 0 17.02-17.02Zm81.03.38a17.04 17.04 0 0 0-17.04-17.04 17.04 17.04 0 0 0-17.04 17.04 17.04 17.04 0 0 0 17.04 17.04 17.04 17.04 0 0 0 17.04-17.04Zm334.05 0a17.03 17.03 0 0 0-17.03-17.03 17.03 17.03 0 0 0-17.03 17.03 17.03 17.03 0 0 0 17.03 17.03 17.03 17.03 0 0 0 17.03-17.03Zm81.79.8a17.04 17.04 0 0 0-17.04-17.04 17.04 17.04 0 0 0-17.04 17.04 17.04 17.04 0 0 0 17.04 17.04 17.04 17.04 0 0 0 17.04-17.04ZM266 399.82a17.03 17.03 0 0 0-17.03-17.03 17.03 17.03 0 0 0-17.03 17.03 17.03 17.03 0 0 0 17.03 17.03A17.03 17.03 0 0 0 266 399.82Zm281.56.55a17.04 17.04 0 0 0-17.04-17.04 17.04 17.04 0 0 0-17.04 17.04 17.04 17.04 0 0 0 17.04 17.04 17.04 17.04 0 0 0 17.04-17.04Zm-145.42.74a17.05 17.05 0 0 0-17.05-17.05 17.05 17.05 0 0 0-17.05 17.05 17.05 17.05 0 0 0 17.05 17.05 17.05 17.05 0 0 0 17.05-17.05Zm278.73.12a17.04 17.04 0 0 0-17.04-17.04 17.04 17.04 0 0 0-17.04 17.04 17.04 17.04 0 0 0 17.04 17.04 17.04 17.04 0 0 0 17.04-17.04Zm-335.96 1.27a17.02 17.02 0 0 0-17.02-17.02 17.02 17.02 0 0 0-17.02 17.02 17.02 17.02 0 0 0 17.02 17.02 17.02 17.02 0 0 0 17.02-17.02Zm-3.2 40.49a17.05 17.05 0 0 0-17.05-17.05 17.05 17.05 0 0 0-17.05 17.05 17.05 17.05 0 0 0 17.05 17.05 17.05 17.05 0 0 0 17.05-17.05Zm154.8 54.94-.01 3.57a.99.99 0 0 0 .99 1h.37a.64.64 0 0 0 .64-.64v-45.19a.64.64 0 0 0-.61-.64l-.37-.02a1 1 0 0 0-1.04 1.01l.06 16.44q.01 2.61-1.46.45-3.19-4.69-9.11-5.45c-21.01-2.71-22.27 31.92-4.73 34.53q8.78 1.3 13.82-5.54 1.46-1.97 1.45.48Zm25.66-25.45q-.41-7.59-.1-15.22c.03-.79-.15-1.3-.98-1.34a.8.79-88.3 0 0-.84.8v45.33a.81.8 2.3 0 0 .74.8q1.17.09 1.13-1.34-.39-11.6.33-20.77c.89-11.4 17.14-15.64 20.97-4.55 2.12 6.15.83 18.66.85 25.72a.81.81 0 0 0 .65.79l.34.06a.42.41 5.3 0 0 .49-.4q-.01-10.34.01-20.71c.03-8.8-4.18-14.63-14.03-13.37q-5.09.65-8.13 4.64-1.32 1.74-1.43-.44Zm67.865-15.91a.55.55 0 0 0-.543-.556l-.54-.007a.55.55 0 0 0-.557.543l-.07 5.74a.55.55 0 0 0 .543.556l.54.007a.55.55 0 0 0 .557-.543l.07-5.74Zm66.975 40.91-.02 4.82a.42.41 2.3 0 0 .39.41l.31.02a1 1 0 0 0 1.06-1q-.02-22.46.02-44.92.01-1.36-1.18-.83a1 .99 78.2 0 0-.59.91v19.36a.21.08 87.9 0 1-.06.19l-.19.06a.36.15 68.3 0 1-.27-.27q-2.71-6.86-9.55-7.88c-21.55-3.23-23.03 31.86-5.85 34.55q9.57 1.49 14.46-5.86 1.48-2.22 1.47.44Zm265.99 0q.03 2.19-.01 4.38c-.01.7.57 1.25 1.17.81a1 1 0 0 0 .4-.8l.16-45.07a.8.8 0 0 0-.8-.8h-.28a.64.64 0 0 0-.64.64v19.06a.33.33 0 0 1-.28.33q-.32.04-.46-.27c-3.61-7.78-13.73-9.99-20.34-5.14-9.06 6.66-8.89 25.29 1.35 30.99q6.13 3.41 13.19.08 2.91-1.37 5.07-4.64 1.44-2.18 1.47.43Zm-595.86-15.91a17.03 17.03 0 0 0-17.03-17.03 17.03 17.03 0 0 0-17.03 17.03 17.03 17.03 0 0 0 17.03 17.03 17.03 17.03 0 0 0 17.03-17.03Zm68.46 14.1q-.12 3.7-.22 7.39c-.38 13.11-22.64 12.85-22.93 1.47a1.02 1.01-76 0 0-.5-.84c-1.51-.87-1.53 1.16-1.34 2.06 1.84 8.53 10.9 10.08 18.12 8.15 6.19-1.66 8.64-6.28 8.7-12.42q.15-15.71.04-31.47a1 .99-85.1 0 0-.81-.97q-1.7-.33-1.13 2.22.16.72.05 2.01-.18 2.2-1.45.39-2.6-3.7-6.64-4.89c-14.36-4.24-22.03 11.12-17.69 22.69 3.21 8.54 12.95 12 20.71 6.94q2.07-1.35 3.68-3.27 1.49-1.77 1.41.54Zm21.79 7.68a17.69 15.31 89.9 0 0 15.28-17.717 17.69 15.31 89.9 0 0-15.34-17.663 17.69 15.31 89.9 0 0-15.28 17.717 17.69 15.31 89.9 0 0 15.34 17.663Zm33.512.02a17.71 15.28 89.8 0 0 15.218-17.763 17.71 15.28 89.8 0 0-15.342-17.657 17.71 15.28 89.8 0 0-15.218 17.763 17.71 15.28 89.8 0 0 15.342 17.657ZM578.42 495l.06 7.15a.65.65 0 0 0 .43.6c.81.28 1.09-.28 1.09-1.02q.01-15.75-.01-31.5c0-.64-.4-1.21-1.09-.98a.81.8-9 0 0-.56.76l.04 4.33q.02 1.96-1.15.39-.24-.32-.45-.66c-2.95-4.74-8.47-6.65-13.66-5.78-17.8 2.96-16.4 37.18 4.14 34.69q7.48-.91 10.64-8.01c.03-.08.21-.2.29-.21a.25.21 86.5 0 1 .23.24Zm23.21-22.66.19-2.13a.99.99 0 0 0-.77-1.06l-.33-.08a1 1 0 0 0-1.22.98v31.54a1.01 1 8.1 0 0 .73.96l.4.11a.63.63 0 0 0 .81-.6q.17-8.77.31-17.53c.13-8.51 2.88-14.34 12.14-14.86a.98.94-64.9 0 0 .59-.23c.93-.79-.37-1.23-.98-1.24q-6.59-.07-10.45 4.71-1.65 2.05-1.42-.57Zm90.04 22.69c-.19 2.27-1.01 9.11 1.39 7.49a.98.98 0 0 0 .44-.82v-31.19a1 1 0 0 0-.95-1l-.25-.01a.8.8 0 0 0-.85.82l.19 5.68a.46.02 88.5 0 1-.01.44q-.16.19-.32-.18c-3.7-8.54-14.96-10.84-21.7-4.88-5.71 5.04-6.73 15.43-4.21 22.45 4.18 11.59 20.71 12.91 25.86 1.12q.08-.18.21-.19a.25.18 89.7 0 1 .2.27Zm52.99-4.73c1.64 16.68 25.5 17.2 28.51 1.7.14-.73.24-2.39-1.12-1.57a.99.98-9.7 0 0-.45.63q-2.24 9.4-10.86 10.22c-9.92.94-13.87-5.17-14.72-14.19a.99.99 0 0 1 .99-1.09h25.76a1 1 0 0 0 1-.98q.1-5.2-1.3-7.98-5.39-10.79-16.14-8.52c-10.6 2.23-12.57 12.54-11.67 21.78Zm59.9-3.2a1 1 0 0 1 .99-1.1h25.79a1 1 0 0 0 1-1q0-5.33-2.45-9.88c-3.97-7.38-13.83-9.07-20.19-4.53-6.93 4.96-7.81 14.16-5.91 22.15 3.56 14.99 26.4 13.36 27.99-1.55a.8.79-71.8 0 0-.39-.78q-1.01-.59-1.31.85c-2.69 13.27-21.48 13.91-24.73.44q-.57-2.37-.79-4.6Zm34.2-14.34-.02-2.77a.99.99 0 0 0-.94-.99l-.26-.02a.51.51 0 0 0-.54.51v32.49a.8.78-78.9 0 0 .48.73c1.09.47 1.31-.42 1.3-1.29q-.12-9.32.08-18.58c.15-6.49 4.66-13.86 12.03-12.92a.99.98 19 0 0 .97-.47q.69-1.12-1.09-1.17-6.91-.19-10.56 4.94-1.44 2.02-1.45-.46Zm118.77 24.57-.05 4.49a.8.8 0 0 0 1.08.76l.3-.11a1.01 1.01 0 0 0 .64-.94v-31.14a1.01 1-87.2 0 0-.9-1l-.28-.02a.8.8 0 0 0-.88.82l.2 5.82a.45.02 87.1 0 1 0 .43q-.16.19-.33-.19-3.05-6.9-10.57-7.83c-22.55-2.78-21.95 37.23-.6 34.57q5.88-.73 9.95-6.15 1.47-1.96 1.44.49Zm-367.587-27.883a.44.44 0 0 0-.442-.438l-.82.002a.44.44 0 0 0-.438.442l.114 32.82a.44.44 0 0 0 .442.438l.82-.002a.44.44 0 0 0 .438-.442l-.114-32.82ZM710.06 497.86q-9.75-23.73-11.82-28.36-.37-.84-1.18-.65a.81.8-18.4 0 0-.55 1.09l13.17 31.26a1.05 1.02 41.2 0 1 .05.61c-1.11 5.03-2.71 10.23-8.84 10.38a.99.99 0 0 0-.75.37q-.79.99.62 1.18c3.98.54 6.96-1.27 8.48-5.14q7.55-19.23 14.84-38.57a.8.8 0 0 0-.45-1.03c-.81-.31-1.28.48-1.54 1.19q-5.05 13.91-10.54 27.67-.74 1.83-1.49 0Zm77.99.66-11.62-28.89a1.02 1.01 77.6 0 0-.98-.63l-.43.02a.64.64 0 0 0-.56.89q6.63 15.98 13.15 32.01c.61 1.48 2.12.86 2.62-.46q5.99-15.67 11.8-31.42.52-1.39-.96-1.13a1.01.99-84.7 0 0-.76.64l-10.77 28.95q-.72 1.94-1.49.02Zm79.33 4.08-3.39 7.84a1 .98-1 0 1-.5.51c-.14.07-9.09 2.15-5.39 2.72 5.02.78 7.45-1.59 9.22-6.2q7.11-18.48 14.04-37.02.88-2.37-1.07-1.09a1.05 1.04-6.1 0 0-.39.48l-10.65 28.09q-.71 1.88-1.48.03l-11.82-28.28a.99.89 7.7 0 0-.38-.45c-1.36-.88-1.76.17-1.27 1.28q6.8 15.56 13.09 31.32a1 .96-45.5 0 1-.01.77Zm109.36-4.56-11.82-28.4a1 1 0 0 0-1.08-.61l-.4.06a.51.51 0 0 0-.39.71l13.3 31.64a1.03 1.01-49.1 0 1 .04.68c-1.44 4.83-2.86 10.29-9.12 10.07a.99.99 0 0 0-.6.18c-1.34.9.06 1.34.82 1.4 4.78.4 7.07-1.76 8.78-6.19q7.29-18.87 14.49-37.79a.52.52 0 0 0-.4-.69l-.38-.06a1.01 1.01 0 0 0-1.09.64l-10.66 28.33q-.71 1.89-1.49.03Zm-680.6 11.45a17.03 17.03 0 0 0-17.03-17.03 17.03 17.03 0 0 0-17.03 17.03 17.03 17.03 0 0 0 17.03 17.03 17.03 17.03 0 0 0 17.03-17.03Zm427.3-13.89c-.7.84-.53 4.73-.48 5.9q.14 3.65-1.6 6.88a1.01 1.01 0 0 0-.02.91c.52 1.07 1.68-.02 1.95-.71q2.55-6.39 1.16-12.59-.29-1.26-1.01-.39ZM256.9 521.62a17.04 17.04 0 0 0-17.04-17.04 17.04 17.04 0 0 0-17.04 17.04 17.04 17.04 0 0 0 17.04 17.04 17.04 17.04 0 0 0 17.04-17.04Z"/><circle cx="385.81" cy="146.38" r="17.04"/><circle cx="743.83" cy="150.89" r="17.04"/><circle cx="385.69" cy="188.83" r="17.03"/><circle cx="744.54" cy="192.54" r="17.05"/><circle cx="385.55" cy="231.3" r="17.05"/><circle cx="745.22" cy="234.21" r="17.04"/><circle cx="248.12" cy="239.19" r="17.06"/><circle cx="459.32" cy="239.72" r="17.02"/><circle cx="668.03" cy="240.91" r="17.06"/><circle cx="498.5" cy="248.01" r="17.02"/><circle cx="288.84" cy="248.59" r="17.03"/><circle cx="625.92" cy="249.54" r="17.04"/><circle cx="207.94" cy="250.85" r="17.06"/><circle cx="421.14" cy="252.69" r="17.02"/><circle cx="708.6" cy="253.25" r="17.05"/><circle cx="385.44" cy="273.77" r="17.03"/><circle cx="318.77" cy="277.93" r="17.04"/><circle cx="745.92" cy="278.01" r="17.04"/><circle cx="594.79" cy="278.39" r="17.04"/><circle cx="523.61" cy="278.77" r="17.03"/><circle cx="178.24" cy="280.25" r="17.02"/><circle cx="385.34" cy="316.2" r="17.03"/><circle cx="329.45" cy="317.29" r="17.04"/><circle cx="530.95" cy="317.62" r="17.05"/><circle cx="582.19" cy="319.43" r="17.05"/><circle cx="746.6" cy="319.66" r="17.04"/><circle cx="167.28" cy="319.75" r="17.03"/><circle cx="531.18" cy="358.56" r="17.04"/><circle cx="385.21" cy="358.66" r="17.04"/><circle cx="178.97" cy="359.27" r="17.05"/><circle cx="593.3" cy="359.76" r="17.04"/><circle cx="734.99" cy="360.62" r="17.05"/><circle cx="327.7" cy="361" r="17.05"/><circle cx="207.88" cy="389.2" r="17.02"/><circle cx="288.89" cy="389.58" r="17.04"/><circle cx="622.95" cy="389.58" r="17.03"/><circle cx="704.73" cy="390.38" r="17.04"/><circle cx="248.97" cy="399.82" r="17.03"/><circle cx="530.52" cy="400.37" r="17.04"/><circle cx="385.09" cy="401.11" r="17.05"/><circle cx="663.83" cy="401.23" r="17.04"/><circle cx="327.89" cy="402.5" r="17.02"/><circle cx="324.66" cy="442.99" r="17.05"/><path d="M495.06 497.45q-5.04 6.84-13.82 5.54c-17.54-2.61-16.28-37.24 4.73-34.53q5.92.76 9.11 5.45 1.47 2.16 1.46-.45l-.06-16.44a1 1 0 0 1 1.04-1.01l.37.02a.64.64 0 0 1 .61.64v45.19a.64.64 0 0 1-.64.64h-.37a.99.99 0 0 1-.99-1l.01-3.57q.01-2.45-1.45-.48Zm-11.754 4.103a15.98 12.99 91.7 0 0 13.458-15.588 15.98 12.99 91.7 0 0-12.51-16.358 15.98 12.99 91.7 0 0-13.458 15.588 15.98 12.99 91.7 0 0 12.51 16.358ZM523.6 472.92q3.04-3.99 8.13-4.64c9.85-1.26 14.06 4.57 14.03 13.37q-.02 10.37-.01 20.71a.42.41 5.3 0 1-.49.4l-.34-.06a.81.81 0 0 1-.65-.79c-.02-7.06 1.27-19.57-.85-25.72-3.83-11.09-20.08-6.85-20.97 4.55q-.72 9.17-.33 20.77.04 1.43-1.13 1.34a.81.8 2.3 0 1-.74-.8v-45.33a.8.79-88.3 0 1 .84-.8c.83.04 1.01.55.98 1.34q-.31 7.63.1 15.22.11 2.18 1.43.44Z"/><rect width="1.64" height="6.84" x="-.82" y="-3.42" rx=".55" transform="rotate(.7 -37309.8 48454.154)"/><path d="M655.54 497.04q-4.89 7.35-14.46 5.86c-17.18-2.69-15.7-37.78 5.85-34.55q6.84 1.02 9.55 7.88a.36.15 68.3 0 0 .27.27l.19-.06a.21.08 87.9 0 0 .06-.19v-19.36a1 .99 78.2 0 1 .59-.91q1.19-.53 1.18.83-.04 22.46-.02 44.92a1 1 0 0 1-1.06 1l-.31-.02a.42.41 2.3 0 1-.39-.41l.02-4.82q.01-2.66-1.47-.44Zm-11.943 4.503a15.95 13.01 91.7 0 0 13.477-15.557 15.95 13.01 91.7 0 0-12.53-16.329 15.95 13.01 91.7 0 0-13.478 15.557 15.95 13.01 91.7 0 0 12.53 16.329Zm277.933-4.493q-2.16 3.27-5.07 4.64-7.06 3.33-13.19-.08c-10.24-5.7-10.41-24.33-1.35-30.99 6.61-4.85 16.73-2.64 20.34 5.14q.14.31.46.27a.33.33 0 0 0 .28-.33v-19.06a.64.64 0 0 1 .64-.64h.28a.8.8 0 0 1 .8.8l-.16 45.07a1 1 0 0 1-.4.8c-.6.44-1.18-.11-1.17-.81q.04-2.19.01-4.38-.03-2.61-1.47-.43Zm-11.983 4.503a15.96 12.99 91.7 0 0 13.457-15.568 15.96 12.99 91.7 0 0-12.51-16.338 15.96 12.99 91.7 0 0-13.458 15.568 15.96 12.99 91.7 0 0 12.51 16.338Z"/><circle cx="310.11" cy="481.57" r="17.03"/><path d="M394.19 495.13q-1.61 1.92-3.68 3.27c-7.76 5.06-17.5 1.6-20.71-6.94-4.34-11.57 3.33-26.93 17.69-22.69q4.04 1.19 6.64 4.89 1.27 1.81 1.45-.39.11-1.29-.05-2.01-.57-2.55 1.13-2.22a1 .99-85.1 0 1 .81.97q.11 15.76-.04 31.47c-.06 6.14-2.51 10.76-8.7 12.42-7.22 1.93-16.28.38-18.12-8.15-.19-.9-.17-2.93 1.34-2.06a1.02 1.01-76 0 1 .5.84c.29 11.38 22.55 11.64 22.93-1.47q.1-3.69.22-7.39.08-2.31-1.41-.54Zm-11.456 3.948a14.68 12.66 91 0 0 12.914-14.457 14.68 12.66 91 0 0-12.402-14.899 14.68 12.66 91 0 0-12.914 14.457 14.68 12.66 91 0 0 12.402 14.899Z"/><path d="M417.39 503.35a17.69 15.31 89.9 0 1-15.34-17.663 17.69 15.31 89.9 0 1 15.28-17.717 17.69 15.31 89.9 0 1 15.34 17.663 17.69 15.31 89.9 0 1-15.28 17.717Zm-.02-1.85a15.87 13.47 90 0 0 13.47-15.87 15.87 13.47 90 0 0-13.47-15.87 15.87 13.47 90 0 0-13.47 15.87 15.87 13.47 90 0 0 13.47 15.87Z"/><path d="M450.902 503.37a17.71 15.28 89.8 0 1-15.342-17.657 17.71 15.28 89.8 0 1 15.218-17.763 17.71 15.28 89.8 0 1 15.342 17.657 17.71 15.28 89.8 0 1-15.218 17.763Zm-.125-1.85a15.88 13.45 90.3 0 0 13.533-15.81 15.88 13.45 90.3 0 0-13.367-15.95 15.88 13.45 90.3 0 0-13.533 15.81 15.88 13.45 90.3 0 0 13.367 15.95Zm127.413-6.76c-.08.01-.26.13-.29.21q-3.16 7.1-10.64 8.01c-20.54 2.49-21.94-31.73-4.14-34.69 5.19-.87 10.71 1.04 13.66 5.78q.21.34.45.66 1.17 1.57 1.15-.39l-.04-4.33a.81.8-9 0 1 .56-.76c.69-.23 1.09.34 1.09.98q.02 15.75.01 31.5c0 .74-.28 1.3-1.09 1.02a.65.65 0 0 1-.43-.6l-.06-7.15a.25.21 86.5 0 0-.23-.24Zm-13.206 6.814a15.97 13 91.6 0 0 13.44-15.601 15.97 13 91.6 0 0-12.548-16.327 15.97 13 91.6 0 0-13.44 15.601 15.97 13 91.6 0 0 12.548 16.327Zm38.066-28.664q3.86-4.78 10.45-4.71c.61.01 1.91.45.98 1.24a.98.94-64.9 0 1-.59.23c-9.26.52-12.01 6.35-12.14 14.86q-.14 8.76-.31 17.53a.63.63 0 0 1-.81.6l-.4-.11a1.01 1 8.1 0 1-.73-.96v-31.54a1 1 0 0 1 1.22-.98l.33.08a.99.99 0 0 1 .77 1.06l-.19 2.13q-.23 2.62 1.42.57Zm88.42 21.85q-.13.01-.21.19c-5.15 11.79-21.68 10.47-25.86-1.12-2.52-7.02-1.5-17.41 4.21-22.45 6.74-5.96 18-3.66 21.7 4.88q.16.37.32.18a.46.02 88.5 0 0 .01-.44l-.19-5.68a.8.8 0 0 1 .85-.82l.25.01a1 1 0 0 1 .95 1v31.19a.98.98 0 0 1-.44.82c-2.4 1.62-1.58-5.22-1.39-7.49a.25.18 89.7 0 0-.2-.27Zm-13.216 6.804a15.97 13.01 91.6 0 0 13.45-15.6 15.97 13.01 91.6 0 0-12.558-16.328 15.97 13.01 91.6 0 0-13.45 15.6 15.97 13.01 91.6 0 0 12.558 16.328ZM773.17 492c-3.01 15.5-26.87 14.98-28.51-1.7-.9-9.24 1.07-19.55 11.67-21.78q10.75-2.27 16.14 8.52 1.4 2.78 1.3 7.98a1 1 0 0 1-1 .98h-25.76a.99.99 0 0 0-.99 1.09c.85 9.02 4.8 15.13 14.72 14.19q8.62-.82 10.86-10.22a.99.98-9.7 0 1 .45-.63c1.36-.82 1.26.84 1.12 1.57Zm-25.99-7.72 23.76-.04a.99.99 0 0 0 .99-1.04q-.31-7.29-5.51-11.13c-5.46-4.02-12.74-2.53-16.88 2.61q-2.91 3.61-3.36 8.51a1 1 0 0 0 1 1.09Zm57.38 2.82q.22 2.23.79 4.6c3.25 13.47 22.04 12.83 24.73-.44q.3-1.44 1.31-.85a.8.79-71.8 0 1 .39.78c-1.59 14.91-24.43 16.54-27.99 1.55-1.9-7.99-1.02-17.19 5.91-22.15 6.36-4.54 16.22-2.85 20.19 4.53q2.45 4.55 2.45 9.88a1 1 0 0 1-1 1h-25.79a1 1 0 0 0-.99 1.1Zm24.81-2.81a1 .99 89.7 0 0 1-1.02q-.19-7.76-6.04-11.45c-5.59-3.53-12.52-2.25-16.48 3.04q-2.52 3.35-3.16 8.24a1.01 1-86.4 0 0 .99 1.13l23.69.06Zm9.39-11.53q.01 2.48 1.45.46 3.65-5.13 10.56-4.94 1.78.05 1.09 1.17a.99.98 19 0 1-.97.47c-7.37-.94-11.88 6.43-12.03 12.92q-.2 9.26-.08 18.58c.01.87-.21 1.76-1.3 1.29a.8.78-78.9 0 1-.48-.73v-32.49a.51.51 0 0 1 .54-.51l.26.02a.99.99 0 0 1 .94.99l.02 2.77Zm118.77 24.57q.03-2.45-1.44-.49-4.07 5.42-9.95 6.15c-21.35 2.66-21.95-37.35.6-34.57q7.52.93 10.57 7.83.17.38.33.19a.45.02 87.1 0 0 0-.43l-.2-5.82a.8.8 0 0 1 .88-.82l.28.02a1.01 1-87.2 0 1 .9 1v31.14a1.01 1.01 0 0 1-.64.94l-.3.11a.8.8 0 0 1-1.08-.76l.05-4.49Zm-13.371 4.232a15.96 13 91.8 0 0 13.495-15.544 15.96 13 91.8 0 0-12.493-16.36 15.96 13 91.8 0 0-13.495 15.544 15.96 13 91.8 0 0 12.493 16.36Z"/><rect width="1.7" height="33.7" x="-.85" y="-16.85" rx=".44" transform="rotate(-.2 139483.07 -168535.941)"/><path d="M711.55 497.86q5.49-13.76 10.54-27.67c.26-.71.73-1.5 1.54-1.19a.8.8 0 0 1 .45 1.03q-7.29 19.34-14.84 38.57c-1.52 3.87-4.5 5.68-8.48 5.14q-1.41-.19-.62-1.18a.99.99 0 0 1 .75-.37c6.13-.15 7.73-5.35 8.84-10.38a1.05 1.02 41.2 0 0-.05-.61l-13.17-31.26a.81.8-18.4 0 1 .55-1.09q.81-.19 1.18.65 2.07 4.63 11.82 28.36.75 1.83 1.49 0Zm76.5.66q.77 1.92 1.49-.02l10.77-28.95a1.01.99-84.7 0 1 .76-.64q1.48-.26.96 1.13-5.81 15.75-11.8 31.42c-.5 1.32-2.01 1.94-2.62.46q-6.52-16.03-13.15-32.01a.64.64 0 0 1 .56-.89l.43-.02a1.02 1.01 77.6 0 1 .98.63l11.62 28.89Zm79.34 3.31q-6.29-15.76-13.09-31.32c-.49-1.11-.09-2.16 1.27-1.28a.99.89 7.7 0 1 .38.45l11.82 28.28q.77 1.85 1.48-.03l10.65-28.09a1.05 1.04-6.1 0 1 .39-.48q1.95-1.28 1.07 1.09-6.93 18.54-14.04 37.02c-1.77 4.61-4.2 6.98-9.22 6.2-3.7-.57 5.25-2.65 5.39-2.72a1 .98-1 0 0 .5-.51l3.39-7.84a1 .96-45.5 0 0 .01-.77Zm109.35-3.79q.78 1.86 1.49-.03l10.66-28.33a1.01 1.01 0 0 1 1.09-.64l.38.06a.52.52 0 0 1 .4.69q-7.2 18.92-14.49 37.79c-1.71 4.43-4 6.59-8.78 6.19-.76-.06-2.16-.5-.82-1.4a.99.99 0 0 1 .6-.18c6.26.22 7.68-5.24 9.12-10.07a1.03 1.01-49.1 0 0-.04-.68l-13.3-31.64a.51.51 0 0 1 .39-.71l.4-.06a1 1 0 0 1 1.08.61l11.82 28.4Z"/><ellipse fill="#fff" rx="14.68" ry="12.66" transform="rotate(91 -46.514 430.382)"/><ellipse fill="#fff" rx="15.87" ry="13.47" transform="rotate(90 -34.13 451.5)"/><ellipse fill="#fff" rx="15.88" ry="13.45" transform="rotate(90.3 -16.122 467.073)"/><ellipse fill="#fff" rx="15.98" ry="12.99" transform="rotate(91.7 6.199 477.607)"/><ellipse fill="#fff" rx="15.97" ry="13" transform="rotate(91.6 46.597 517.733)"/><ellipse fill="#fff" rx="15.95" ry="13.01" transform="rotate(91.7 86.334 555.419)"/><ellipse fill="#fff" rx="15.97" ry="13.01" transform="rotate(91.6 103.237 572.803)"/><path fill="#fff" d="M747.18 484.28a1 1 0 0 1-1-1.09q.45-4.9 3.36-8.51c4.14-5.14 11.42-6.63 16.88-2.61q5.2 3.84 5.51 11.13a.99.99 0 0 1-.99 1.04l-23.76.04Zm82.19.01-23.69-.06a1.01 1-86.4 0 1-.99-1.13q.64-4.89 3.16-8.24c3.96-5.29 10.89-6.57 16.48-3.04q5.85 3.69 6.04 11.45a1 .99 89.7 0 1-1 1.02Z"/><ellipse fill="#fff" rx="15.96" ry="12.99" transform="rotate(91.7 219.31 684.506)"/><ellipse fill="#fff" rx="15.96" ry="13" transform="rotate(91.8 237.036 700.525)"/><circle cx="279.11" cy="509.49" r="17.03"/><path d="M723.44 495.6q.72-.87 1.01.39 1.39 6.2-1.16 12.59c-.27.69-1.43 1.78-1.95.71a1.01 1.01 0 0 1 .02-.91q1.74-3.23 1.6-6.88c-.05-1.17-.22-5.06.48-5.9Z"/><circle cx="239.86" cy="521.62" r="17.04"/></svg>