<?xml version="1.0" encoding="UTF-8"?><svg id="Layer_2" xmlns="http://www.w3.org/2000/svg" viewBox="0 0 1858.41 697.12"><g id="Layer_1-2"><path d="m429.97,30.1c0-16.07-13.03-29.1-29.1-29.1h0c-16.07,0-29.1,13.03-29.1,29.1h0c0,16.07,13.03,29.1,29.1,29.1h0c16.07,0,29.1-13.03,29.1-29.1h0m607.49,7.63c0-16.09-13.04-29.13-29.13-29.13h0c-16.09,0-29.13,13.04-29.13,29.13h0c0,16.09,13.04,29.13,29.13,29.13h0c16.09,0,29.13-13.04,29.13-29.13h0M429.77,102.12c0-16.08-13.03-29.11-29.11-29.11-16.08,0-29.11,13.03-29.11,29.11s13.03,29.11,29.11,29.11,29.11-13.03,29.11-29.11m608.89,6.31c0-16.09-13.05-29.14-29.14-29.14h0c-16.09,0-29.14,13.05-29.14,29.14h0c0,16.09,13.05,29.14,29.14,29.14h0c16.09,0,29.14-13.05,29.14-29.14h0m-609.11,65.81c0-16.09-13.05-29.14-29.14-29.14h0c-16.09,0-29.14,13.05-29.14,29.14h0c0,16.09,13.05,29.14,29.14,29.14h0c16.09,0,29.14-13.05,29.14-29.14h0m610.22,4.92c0-16.09-13.04-29.13-29.13-29.13h0c-16.09,0-29.13,13.04-29.13,29.13h0c0,16.09,13.04,29.13,29.13,29.13h0c16.09,0,29.13-13.04,29.13-29.13h0m-843.41,8.43c0-16.1-13.05-29.15-29.15-29.15s-29.15,13.05-29.15,29.15,13.05,29.15,29.15,29.15,29.15-13.05,29.15-29.15m358.33.91c0-16.07-13.02-29.09-29.09-29.09h0c-16.07,0-29.09,13.02-29.09,29.09s13.02,29.09,29.09,29.09h0c16.07,0,29.09-13.02,29.09-29.09h0m354.16,1.98c0-16.09-13.05-29.14-29.14-29.14s-29.14,13.05-29.14,29.14h0c0,16.09,13.05,29.14,29.14,29.14h0c16.09,0,29.14-13.05,29.14-29.14h0m-287.73,12.07c0-16.05-13.01-29.06-29.06-29.06s-29.06,13.01-29.06,29.06,13.01,29.06,29.06,29.06,29.06-13.01,29.06-29.06m-355.67,1.03c0-16.07-13.03-29.1-29.1-29.1h0c-16.07,0-29.1,13.03-29.1,29.1h0c0,16.07,13.03,29.1,29.1,29.1h0c16.07,0,29.1-13.03,29.1-29.1h0m571.91,1.59c0-16.09-13.04-29.13-29.13-29.13h0c-16.09,0-29.13,13.04-29.13,29.13h0c0,16.09,13.04,29.13,29.13,29.13h0c16.09,0,29.13-13.04,29.13-29.13h0m-709.21,2.21c0-16.09-13.05-29.14-29.14-29.14s-29.14,13.05-29.14,29.14h0c0,16.09,13.05,29.14,29.14,29.14h0c16.09,0,29.14-13.05,29.14-29.14h0m361.72,3.16c0-16.08-13.04-29.12-29.12-29.12s-29.12,13.04-29.12,29.12,13.04,29.12,29.12,29.12,29.12-13.04,29.12-29.12m487.83.91c0-16.1-13.05-29.15-29.15-29.15h0c-16.1,0-29.15,13.05-29.15,29.15h0c0,16.1,13.05,29.15,29.15,29.15h0c16.1,0,29.15-13.05,29.15-29.15h0m-548.35,34.87c0-16.08-13.04-29.12-29.12-29.12s-29.12,13.04-29.12,29.12,13.04,29.12,29.12,29.12,29.12-13.04,29.12-29.12m-113.13,7.03c0-16.09-13.05-29.14-29.14-29.14s-29.14,13.05-29.14,29.14h0c0,16.09,13.05,29.14,29.14,29.14h0c16.09,0,29.14-13.05,29.14-29.14h0m724.75.14c0-16.08-13.03-29.11-29.11-29.11s-29.11,13.03-29.11,29.11,13.03,29.11,29.11,29.11,29.11-13.03,29.11-29.11m-256.4.6c0-16.09-13.05-29.14-29.14-29.14s-29.14,13.05-29.14,29.14h0c0,16.09,13.05,29.14,29.14,29.14h0c16.09,0,29.14-13.05,29.14-29.14h0m-120.79.68c0-16.08-13.04-29.12-29.12-29.12s-29.12,13.04-29.12,29.12,13.04,29.12,29.12,29.12,29.12-13.04,29.12-29.12m-586.04,2.5c0-16.07-13.02-29.09-29.09-29.09s-29.09,13.02-29.09,29.09,13.02,29.09,29.09,29.09,29.09-13.02,29.09-29.09m351.41,61.01c0-16.08-13.03-29.11-29.11-29.11s-29.11,13.03-29.11,29.11,13.03,29.11,29.11,29.11,29.11-13.03,29.11-29.11m-94.79,1.89c0-16.08-13.04-29.12-29.12-29.12s-29.12,13.04-29.12,29.12,13.04,29.12,29.12,29.12,29.12-13.04,29.12-29.12m341.86.56c0-16.08-13.04-29.12-29.12-29.12s-29.12,13.04-29.12,29.12,13.04,29.12,29.12,29.12,29.12-13.04,29.12-29.12m86.93,3.07c0-16.08-13.03-29.11-29.11-29.11s-29.11,13.03-29.11,29.11,13.03,29.11,29.11,29.11,29.11-13.03,29.11-29.11m278.94.37c0-16.07-13.03-29.1-29.1-29.1s-29.1,13.03-29.1,29.1,13.03,29.1,29.1,29.1,29.1-13.03,29.1-29.1m-982.91.19c0-16.07-13.02-29.09-29.09-29.09s-29.09,13.02-29.09,29.09,13.02,29.09,29.09,29.09,29.09-13.02,29.09-29.09m617.42,65.87c0-16.08-13.04-29.12-29.12-29.12h0c-16.08,0-29.12,13.04-29.12,29.12s13.04,29.12,29.12,29.12,29.12-13.04,29.12-29.12m-247.68.15c0-16.08-13.03-29.11-29.11-29.11s-29.11,13.03-29.11,29.11,13.03,29.11,29.11,29.11,29.11-13.03,29.11-29.11m-349.82,1.07c0-16.1-13.05-29.15-29.15-29.15h0c-16.1,0-29.15,13.05-29.15,29.15h0c0,16.1,13.05,29.15,29.15,29.15h0c16.1,0,29.15-13.05,29.15-29.15h0m702.95.86c0-16.08-13.04-29.12-29.12-29.12s-29.12,13.04-29.12,29.12,13.04,29.12,29.12,29.12,29.12-13.04,29.12-29.12m240.38,1.45c0-16.08-13.04-29.12-29.12-29.12s-29.12,13.04-29.12,29.12,13.04,29.12,29.12,29.12,29.12-13.04,29.12-29.12m-691.1.63c0-16.07-13.03-29.1-29.1-29.1s-29.1,13.03-29.1,29.1,13.03,29.1,29.1,29.1,29.1-13.03,29.1-29.1m-203.26,47.83c0-16.08-13.03-29.11-29.11-29.11s-29.11,13.03-29.11,29.11c0,16.08,13.03,29.11,29.11,29.11s29.11-13.03,29.11-29.11m137.46.67c0-16.08-13.04-29.12-29.12-29.12s-29.12,13.04-29.12,29.12,13.04,29.12,29.12,29.12,29.12-13.04,29.12-29.12m566.77-.02c0-16.07-13.03-29.1-29.1-29.1s-29.1,13.03-29.1,29.1,13.03,29.1,29.1,29.1,29.1-13.03,29.1-29.1m138.83,1.41c0-16.09-13.04-29.13-29.13-29.13h0c-16.09,0-29.13,13.04-29.13,29.13h0c0,16.09,13.04,29.13,29.13,29.13h0c16.09,0,29.13-13.04,29.13-29.13h0m-773.36,16.03c0-16.07-13.03-29.1-29.1-29.1s-29.1,13.03-29.1,29.1c0,16.07,13.03,29.1,29.1,29.1s29.1-13.03,29.1-29.1m477.7.93c0-16.07-13.02-29.09-29.09-29.09h0c-16.07,0-29.09,13.02-29.09,29.09h0c0,16.07,13.02,29.09,29.09,29.09h0c16.07,0,29.09-13.02,29.09-29.09h0m-246.7,1.23c0-16.09-13.04-29.13-29.13-29.13h0c-16.09,0-29.13,13.04-29.13,29.13h0c0,16.09,13.04,29.13,29.13,29.13h0c16.09,0,29.13-13.04,29.13-29.13h0m472.94.18c0-16.07-13.03-29.1-29.1-29.1s-29.1,13.03-29.1,29.1,13.03,29.1,29.1,29.1,29.1-13.03,29.1-29.1m-570.05,2.19c0-16.06-13.02-29.08-29.08-29.08h0c-16.06,0-29.08,13.02-29.08,29.08h0c0,16.06,13.02,29.08,29.08,29.08h0c16.06,0,29.08-13.02,29.08-29.08h0m-5.49,68.73c0-16.08-13.04-29.12-29.12-29.12s-29.12,13.04-29.12,29.12,13.04,29.12,29.12,29.12,29.12-13.04,29.12-29.12m580,7.79c0-.53-.44-.96-.97-.95h-.06c-.53,0-.95.44-.95.97h0s.18,14.66.18,14.66c0,.53.44.95.97.95h.06c.53,0,.96-.44.95-.97h0s-.18-14.66-.18-14.66m-220.3,92.36l-.17,15.88c0,.55.44,1,.99,1.01,0,0,0,0,.01,0h1.81c.55,0,1-.45,1-1v-108.01c0-.55-.44-1-.99-1-.02,0-.05,0-.07,0l-1.83.11c-.53.03-.94.47-.94,1l.12,45.87c0,2.57-.5,2.68-1.53.32-4.62-10.59-13-16.66-25.15-18.21-35.86-4.56-44.51,37.76-34.56,62.87,9.82,24.76,46.72,27.04,58.79,2.78.33-.67.67-1.34,1.02-2,1.03-1.97,1.53-1.85,1.5.38m59.6-46.11l.06-45.99c0-.55-.45-1-1-1-.02,0-.03,0-.05,0l-2.03.1c-.53.02-.95.46-.95,1l.04,108.02c0,.54.42.98.96,1l1.87.06c.55.02,1.02-.41,1.04-.96,0-.01,0-.02,0-.03.09-15.55.14-31.09.14-46.64-.01-17.76,14.39-32.54,32.67-29.53,14.81,2.45,19.99,12.66,20.01,26.72.02,16.47.03,32.95.03,49.43,0,.54.42.98.96,1l1.72.08c.55.02,1.02-.41,1.04-.96,0-.01,0-.03,0-.04.11-25.71.09-43.57-.06-53.56-.51-32.54-45.71-36.13-56.02-8.54-.06.16-.15.26-.26.3-.08.03-.15-.14-.17-.37,0-.03,0-.06,0-.09m320.54,45.85v16.15c0,.55.44.99.99,1l1.74.03c.55.01,1.01-.43,1.02-.98,0,0,0-.01,0-.02v-108.03c0-.55-.45-1-1-1h-1.75c-.55,0-.99.44-1,.99h0v49.26c0,.09-.02.17-.06.19l-.18.06c-.12.04-.26-.06-.32-.22,0,0,0,0,0,0-5.42-16.44-21.33-24.11-37.94-20.79-29.3,5.86-33.44,49.51-18.77,69.5,8.81,12,24.58,15.7,38.23,10.57,7.99-3.01,13.82-8.68,17.5-17.03,1.02-2.31,1.53-2.21,1.54.32m630.87-2.49l-.19,18.63c0,.55.43,1,.98,1.01,0,0,.01,0,.02,0h1.54c.55,0,.99-.44,1-.99.32-36-.28-72.01.12-108,0-.55-.44-1-.99-1.01,0,0,0,0-.01,0h-1.86c-.55,0-1,.45-1,1l.14,45.65c.01,2.42-.49,2.53-1.52.34-4.29-9.21-11.31-14.96-21.05-17.23-52.66-12.3-57.84,81.17-10.04,82.06,15.51.29,26.25-6.83,32.22-21.36.06-.14.13-.24.22-.31.29-.23.43-.16.42.21m-763.25-42.61l.18-16.08c0-.55-.44-1.01-.99-1.01-.02,0-.04,0-.06,0l-1.8.1c-.53.03-.95.47-.95,1v77.17c0,.53.42.97.95,1l1.8.09c.55.03,1.02-.4,1.05-.95,0-.02,0-.04,0-.06-.28-25.09-.19-40.74.26-46.95,1.28-17.26,11.8-29.8,29.93-29.49.56,0,1.02-.44,1.02-.99,0-.02,0-.04,0-.06l-.08-1.77c-.02-.54-.48-.97-1.02-.96-13.67.33-24.95,5.3-29.86,19.09-.02.07-.09.12-.16.12h-.11c-.09,0-.16-.11-.16-.25h0m-487.45,38.79c-1.36,18.53,5.58,41.54-19.95,47.44-15.29,3.53-34.76-.98-35.89-19.77-.03-.55-.5-.97-1.04-.94l-1.7.07c-.54.03-.97.49-.95,1.04.71,22.18,22.08,26.29,39.68,23.46,16.39-2.64,23.52-14.53,23.65-30.41.07-7.77.07-32.99.02-75.68,0-.55-.45-1-1-1h-1.99c-.55,0-1,.45-1,1v14.29c0,2.38-.52,2.49-1.53.34-4.65-9.87-12.62-15.61-23.91-17.22-8.33-1.19-15.77.33-22.31,4.56-17.29,11.17-19.55,37.17-11.48,54.57,11.32,24.43,48.78,22.94,58.98-1.82.06-.13.13-.21.22-.22.1-.02.19.09.2.24,0,.02,0,.03,0,.05m44.62-56.99c-45.23,8.16-36.08,92.85,14.77,81.18,42.9-9.84,34.5-90.08-14.77-81.18" vector-effect="non-scaling-stroke" fill="none" stroke="#818181" stroke-width="2"/><path d="m554.5,644.12c14.08,12.45,36.55,10.57,48.18-3.35,11.26-13.49,12.79-34.83,5.68-50.71-6.61-14.75-18.44-21.47-35.51-20.16-35.15,2.71-40.92,54.27-18.35,74.22m325.02-13.52l-.2,18.96c0,.51.38.95.9,1l1.93.21c.55.06,1.04-.34,1.1-.89,0-.04,0-.07,0-.11v-75.91c0-.55-.45-1-1-1h-2c-.55,0-.99.44-1,.99h0v13.4c0,2.44-.5,2.55-1.52.33-3.07-6.69-7.87-11.65-14.39-14.88-14.28-7.09-33.61-2.75-42.09,11.21-13.84,22.78-8.87,66.91,25.28,68.33,15.33.63,26.24-6.59,32.71-21.68.05-.13.13-.19.22-.2.03-.02.05.07.05.2,0,.01,0,.03,0,.04m268.32-40.01l-.12.03c-.12.03-.26-.05-.3-.19-5.63-16.25-21.24-23.44-37.48-20.31-38.78,7.49-36.67,83.98,8.02,82.15,14.06-.57,24.6-8.09,29.52-21.18.06-.15.15-.23.27-.24.04,0,.07.12.07.26l.11,18.51c0,.55.45.99,1,.99h1.83c.55,0,1-.45,1-1v-75.75c0-.55-.45-1-1-1h-1.77c-.55,0-.99.43-1,.98h0s-.14,16.59-.14,16.59c0,.11,0,.16-.01.16m129.98,21.25l63.72.05c.55,0,1-.45,1-1,0,0,0-.01,0-.02-.22-11.9-2.26-23.6-11.26-32.36-7.25-7.05-16.37-9.98-27.36-8.79-27.66,3.02-34.59,34.4-29.3,56.92,8.64,36.77,61.44,33.37,66.87-2.92.08-.55-.3-1.06-.85-1.14-.03,0-.06,0-.08,0l-1.61-.09c-.47-.03-.9.28-1.03.73-3.29,12.28-8.4,21.2-21.63,24.27-14.23,3.3-28.59-.76-35.12-14.8-2.87-6.19-4.32-12.8-4.35-19.83,0-.55.44-1,.99-1.01,0,0,0,0,.01,0m138.98.01l63.35.02c.53,0,.97-.41,1-.94.53-9.29-1.43-17.79-5.88-25.51-4.19-7.27-10.48-12.51-18.44-14.64-24.19-6.46-42.63,10.86-44.84,34.08-2.58,27.19,10.75,53.58,42.76,46.5,12.76-2.83,20.93-10.48,24.5-22.97.45-1.6.7-3.22.73-4.87.02-.55-.41-1-.97-1.02-.03,0-.06,0-.09,0l-1.41.09c-.45.03-.82.35-.91.78-2.5,11.48-8.29,20.43-20.15,23.74-15.92,4.43-32.41-1.13-37.9-17.78-1.91-5.79-2.82-11.28-2.75-16.49,0-.55.45-.99,1-.99m79.92-26.76l.07-12.73c0-.55-.45-1-1-1,0,0,0,0-.01,0h-1.98c-.55,0-.99.44-1,.99-.14,21.43-.1,39.68.12,54.76.13,8.93.11,16.47-.05,22.62-.01.56.42,1.02.98,1.03.04,0,.08,0,.12,0l1.67-.17c.52-.05.91-.49.9-1-.12-14.63-.07-29.25.14-43.86.26-17.83,9.45-32.3,28.86-32.6,2.63-.04,3.28-1.04,1.97-3.01-.17-.26-.45-.42-.77-.45-10.39-.66-22.18,3.47-27.11,13.09-.47.91-.94,1.82-1.41,2.71-1.01,1.93-1.51,1.8-1.5-.38m282.11,45.6l-.1,18.91c0,.56.45,1.01,1,1.01h1.98c.55,0,.99-.44,1-.99.07-24.75.08-49.5.02-74.27,0-2.25-1.06-3.09-3.16-2.51-.43.12-.73.5-.74.95-.1,5.73-.12,11.47-.05,17.2.01.1-.16.68-.31.26-4.29-12.63-13.08-19.8-26.38-21.51-48.66-6.27-52.39,79.88-7.01,82.56,15.19.9,27.94-6.94,33.21-21.44.05-.13.1-.24.17-.31.25-.27.37-.23.37.14m-1477.36-31.65c0-16.07-13.02-29.09-29.09-29.09h0c-16.07,0-29.09,13.02-29.09,29.09h0c0,16.07,13.02,29.09,29.09,29.09h0c16.07,0,29.09-13.02,29.09-29.09h0m891.35,44.27c-9.45-23.05-19.04-46.04-28.77-68.97-.02-.04-.19-.54-.52-1.49-.64-1.85-1.89-2.34-3.74-1.45-.48.23-.69.8-.49,1.29l32.02,76.33c.1.23.1.49.02.72-1.39,3.91-2.79,7.57-4.2,10.96-4.7,11.34-5.75,12.5-18.43,13.18-.53.03-.95.46-.95.99v1.92c0,.55.45,1,1,1,.02,0,.05,0,.07,0,15.34-1.02,17.21-3.5,22.72-17.76,11.25-29.09,22.42-58.28,33.53-87.57.19-.5-.06-1.07-.56-1.28-1.59-.65-3.03.14-3.65,1.79-8.85,23.46-17.7,46.9-26.57,70.32-.47,1.27-.97,1.27-1.48.02m186.32,1.22c-.48,1.29-.98,1.29-1.49.02-9.45-23.3-18.85-46.63-28.21-69.98-.03-.07-.18-.51-.45-1.34-.64-1.96-1.99-2.62-4.04-1.98-.53.17-.82.74-.65,1.26,0,.02.02.05.02.07,9.38,23.22,18.85,46.4,28.41,69.54,1.42,3.44,2.58,6.03,3.47,7.76.1.2.26.36.47.45,2.35,1.09,4,.37,4.95-2.14,9.47-25.15,18.94-50.32,28.39-75.49.19-.52-.06-1.09-.57-1.29-.1-.04-.2-.06-.3-.06l-2.02-.13c-.45-.03-.86.24-1.01.65l-26.97,72.66m189.04-1.4c-.47,1.25-.97,1.26-1.48.03l-29.81-71.19c-.16-.37-.52-.61-.93-.61h-1.97c-.55,0-1,.44-1.01.98,0,.14.03.27.08.4l32.13,76.28c.1.23.1.49.02.72-1.81,5.09-3.79,10.1-5.93,15.04-3.84,8.88-8.26,8.79-17.05,9.09-.54.02-.97.46-.97,1v1.58c0,.51.38.93.88.99,14.89,1.72,18.52-5.24,23.06-17.03,11.23-29.21,22.45-58.42,33.66-87.65.2-.52-.06-1.1-.58-1.3-.06-.02-.13-.04-.19-.05l-1.82-.3c-.47-.08-.93.19-1.1.64l-26.99,71.38m256.94-.01l-29.87-71.28c-.17-.39-.56-.64-.99-.61l-1.89.13c-.55.04-.96.52-.92,1.08,0,.11.03.21.07.31l32.04,76.16c.1.23.1.48.02.72-2.57,7.33-5.94,19.53-11.97,22.68-2.92,1.53-7.16,1.31-10.68,1.61-.52.04-.92.47-.92.99v1.65c0,.52.41.96.93.99,15.04,1.08,18.07-5.02,23.09-18.1,11.11-28.95,22.21-57.9,33.31-86.86.2-.52-.06-1.09-.58-1.29-.08-.03-.17-.05-.26-.06-1.57-.15-2.55.27-2.93,1.27-9.07,23.51-18.06,47.03-26.96,70.58-.47,1.25-.97,1.26-1.49.03m-917.93-70.81c0-.52-.42-.94-.94-.94h-2.06c-.52,0-.94.42-.94.94h0v77.34c0,.52.42.94.94.94h2.06c.52,0,.94-.42.94-.94h0v-77.34m-658.26,74.12c0-16.09-13.04-29.13-29.13-29.13h0c-16.09,0-29.13,13.04-29.13,29.13h0c0,16.09,13.04,29.13,29.13,29.13h0c16.09,0,29.13-13.04,29.13-29.13h0m973.32-10.56c.08,9.97,1.38,21.58-3.99,30.23-.14.23-.21.53-.2.92,0,.55.46.99,1.02.98.13,0,.26-.03.38-.08,1.27-.54,2.19-1.25,2.77-2.14,5.03-7.7,3.99-20.96,3.71-29.95-.02-.54-.46-.97-1-.97h-1.69c-.55,0-1,.45-1,1h0m-1039.92,31.15c0-16.08-13.03-29.11-29.11-29.11s-29.11,13.03-29.11,29.11c0,16.08,13.03,29.11,29.11,29.11s29.11-13.03,29.11-29.11m448.11-32.26c8.28,15.51,28.95,17.69,42.12,7.42,12.65-9.87,14.76-28.58,12-43.32-5.68-30.43-46.32-35.74-57.1-5.49-5.1,14.33-4.11,28.12,2.98,41.39m386.76,7.92c9.34,7.4,22.44,7.53,32.51,1.5,19.4-11.62,21.49-47.18,6.14-62.48-8.31-8.29-22.14-10.91-32.92-5.99-23.08,10.52-24.28,52.28-5.73,66.97m625.99-58.65c-12.28,16.29-11.6,53.08,10.35,62.08,14.41,5.9,31.06.09,37.95-13.81,6.06-12.23,6.85-25.15,2.38-38.77-7.03-21.4-36.56-28.21-50.68-9.5m-1226.42-10.64c-37.31-.9-40.73,59.54-10.6,67.78,15,4.1,29.69-1.65,36.11-15.72,9.32-20.41.83-51.43-25.51-52.06" vector-effect="non-scaling-stroke" fill="none" stroke="#818181" stroke-width="2"/><path d="m483.92,576.37c-28.92,15.21-23.14,73.11,13.6,72.13,41.37-1.1,42.37-69.77,3.76-75.14-6.13-.85-11.92.15-17.36,3.01m74.66,3.09c-25.54,19.3-14.35,76.18,24.57,68.31,27.13-5.48,33.01-45.19,16.78-63.85-10.73-12.35-28.48-14.19-41.35-4.46m276.46-3.09c-22.77,11.87-23.48,60.48,1.52,69.92,19.79,7.47,37.67-5.02,41.59-24.76,2.93-14.75.78-34.58-13.41-43.58-8.72-5.53-20.6-6.31-29.7-1.58m256.84,57.3c11.01,21.54,41.42,18.47,51.32-1.91,6.25-12.88,6.87-33.8-1.5-45.87-10.53-15.19-35.06-17.76-46.89-1.97-10.55,14.09-10.54,34.87-2.93,49.75m186.1-25.57h59.68c.55.01,1-.44,1-.99,0,0,0-.01,0-.02-.18-6.65-1.77-12.78-4.77-18.4-10.46-19.58-37.02-20.73-49.72-2.85-4.39,6.19-6.79,13.26-7.19,21.21-.03.55.4,1.02.95,1.05.02,0,.03,0,.05,0m138.68,0c19.75.15,39.7-.09,59.6-.02.55,0,1-.45,1-1,.02-14.03-7.6-29.07-21.97-32.74-22.92-5.86-37.73,11.64-39.61,32.67-.05.55.35,1.04.9,1.09.03,0,.06,0,.08,0m336.34-34.25c-48.89-8.21-46.94,85.01,1.03,73.71,33.14-7.8,33.78-67.87-1.03-73.71" vector-effect="non-scaling-stroke" fill="none" stroke="#818181" stroke-width="2"/><circle cx="400.87" cy="30.1" r="29.1" transform="translate(306.95 420.97) rotate(-80.78)" fill="#999999" stroke-width="0"/><circle cx="1008.33" cy="37.73" r="29.13" fill="#999999" stroke-width="0"/><circle cx="400.66" cy="102.12" r="29.11" fill="#999999" stroke-width="0"/><circle cx="1009.52" cy="108.43" r="29.14" fill="#999999" stroke-width="0"/><circle cx="400.41" cy="174.24" r="29.14" fill="#999999" stroke-width="0"/><circle cx="1010.64" cy="179.16" r="29.13" fill="#999999" stroke-width="0"/><circle cx="167.21" cy="187.59" r="29.15" fill="#999999" stroke-width="0"/><circle cx="525.6" cy="188.5" r="29.09" fill="#999999" stroke-width="0"/><circle cx="879.71" cy="190.48" r="29.14" fill="#999999" stroke-width="0"/><circle cx="592.06" cy="202.55" r="29.06" fill="#999999" stroke-width="0"/><circle cx="236.35" cy="203.58" r="29.1" fill="#999999" stroke-width="0"/><circle cx="808.23" cy="205.17" r="29.13" fill="#999999" stroke-width="0"/><circle cx="99.01" cy="207.38" r="29.14" fill="#999999" stroke-width="0"/><circle cx="460.75" cy="210.54" r="29.12" fill="#999999" stroke-width="0"/><circle cx="948.55" cy="211.45" r="29.15" fill="#999999" stroke-width="0"/><circle cx="400.23" cy="246.32" r="29.12" transform="translate(92.98 601.93) rotate(-80.78)" fill="#999999" stroke-width="0"/><circle cx="287.08" cy="253.35" r="29.14" fill="#999999" stroke-width="0"/><circle cx="1011.86" cy="253.49" r="29.11" fill="#999999" stroke-width="0"/><circle cx="755.43" cy="254.09" r="29.14" fill="#999999" stroke-width="0"/><circle cx="634.66" cy="254.77" r="29.12" fill="#999999" stroke-width="0"/><circle cx="48.65" cy="257.27" r="29.09" fill="#999999" stroke-width="0"/><circle cx="400.04" cy="318.28" r="29.11" fill="#999999" stroke-width="0"/><circle cx="305.24" cy="320.17" r="29.12" fill="#999999" stroke-width="0"/><circle cx="647.1" cy="320.73" r="29.12" fill="#999999" stroke-width="0"/><circle cx="734.04" cy="323.8" r="29.11" fill="#999999" stroke-width="0"/><circle cx="1012.99" cy="324.17" r="29.1" fill="#999999" stroke-width="0"/><circle cx="30.09" cy="324.36" r="29.09" fill="#999999" stroke-width="0"/><circle cx="647.48" cy="390.23" r="29.12" fill="#999999" stroke-width="0"/><circle cx="399.81" cy="390.38" r="29.11" fill="#999999" stroke-width="0"/><circle cx="49.95" cy="391.45" r="29.15" transform="translate(-342.95 428.35) rotate(-88.09)" fill="#999999" stroke-width="0"/><circle cx="752.93" cy="392.31" r="29.12" fill="#999999" stroke-width="0"/><circle cx="993.31" cy="393.76" r="29.12" fill="#999999" stroke-width="0"/><circle cx="302.23" cy="394.39" r="29.1" fill="#999999" stroke-width="0"/><circle cx="98.96" cy="442.22" r="29.11" fill="#999999" stroke-width="0"/><circle cx="236.41" cy="442.89" r="29.12" fill="#999999" stroke-width="0"/><circle cx="803.2" cy="442.87" r="29.1" fill="#999999" stroke-width="0"/><circle cx="942" cy="444.28" r="29.13" fill="#999999" stroke-width="0"/><circle cx="168.67" cy="460.31" r="29.1" fill="#999999" stroke-width="0"/><circle cx="646.38" cy="461.24" r="29.09" fill="#999999" stroke-width="0"/><circle cx="399.64" cy="462.47" r="29.13" fill="#999999" stroke-width="0"/><circle cx="872.61" cy="462.65" r="29.1" fill="#999999" stroke-width="0"/><circle cx="302.58" cy="464.84" r="29.08" fill="#999999" stroke-width="0"/><circle cx="297.05" cy="533.57" r="29.12" fill="#999999" stroke-width="0"/><rect x="904.28" y="540.41" width="1.98" height="16.58" rx=".96" ry=".96" transform="translate(-6.64 11.1) rotate(-.7)" fill="#999999" stroke-width="0"/><path d="m684.37,633.34c-.35.66-.69,1.33-1.02,2-12.07,24.26-48.97,21.98-58.79-2.78-9.95-25.11-1.3-67.43,34.56-62.87,12.15,1.55,20.53,7.62,25.15,18.21,1.03,2.36,1.54,2.25,1.53-.32l-.12-45.87c0-.53.41-.97.94-1l1.83-.11c.55-.04,1.02.38,1.06.93,0,.02,0,.05,0,.07v108.01c0,.55-.45,1-1,1h-1.81c-.55,0-1-.45-1-1,0,0,0,0,0-.01l.17-15.88c.03-2.23-.47-2.35-1.5-.38h0Zm-53.93,1.41c8.28,15.51,28.95,17.69,42.12,7.42,12.65-9.87,14.76-28.58,12-43.32-5.68-30.43-46.32-35.74-57.1-5.49-5.1,14.33-4.11,28.12,2.98,41.39Zm115.2-46.68c.11-.04.2-.14.26-.3,10.31-27.59,55.51-24,56.02,8.54.15,9.99.17,27.85.06,53.56,0,.55-.45,1-1,1-.01,0-.03,0-.04,0l-1.72-.08c-.54-.02-.96-.46-.96-1,0-16.48-.01-32.96-.03-49.43-.02-14.06-5.2-24.27-20.01-26.72-18.28-3.01-32.68,11.77-32.67,29.53,0,15.55-.05,31.09-.14,46.64,0,.55-.46,1-1.01.99-.01,0-.02,0-.03,0l-1.87-.06c-.54-.02-.96-.46-.96-1l-.04-108.02c0-.54.42-.98.95-1l2.03-.1c.55-.03,1.02.4,1.05.95,0,.02,0,.03,0,.05l-.06,45.99c0,.23.06.44.14.46.01,0,.02,0,.03,0h0Zm320.37,45.39c0-2.53-.52-2.63-1.54-.32-3.68,8.35-9.51,14.02-17.5,17.03-13.65,5.13-29.42,1.43-38.23-10.57-14.67-19.99-10.53-63.64,18.77-69.5,16.61-3.32,32.52,4.35,37.94,20.79.05.16.2.26.32.22,0,0,0,0,0,0l.18-.06s.06-.1.06-.19v-49.25c0-.55.44-1,.99-1,0,0,0,0,0,0h1.75c.55,0,1,.45,1,1v108.03c0,.55-.45,1-1,1,0,0-.01,0-.02,0l-1.74-.03c-.55,0-.99-.45-.99-1v-16.15Zm-48.81,9.21c9.34,7.4,22.44,7.53,32.51,1.5,19.4-11.62,21.49-47.18,6.14-62.48-8.31-8.29-22.14-10.91-32.92-5.99-23.08,10.52-24.28,52.28-5.73,66.97h0Zm679.26-11.91c-.09.07-.16.17-.22.31-5.97,14.53-16.71,21.65-32.22,21.36-47.8-.89-42.62-94.36,10.04-82.06,9.74,2.27,16.76,8.02,21.05,17.23,1.03,2.19,1.53,2.08,1.52-.34l-.14-45.65c0-.55.45-1,1-1h1.86c.55,0,1,.45,1,1h0c-.4,36,.2,72.01-.12,108.01,0,.55-.45.99-1,.99h-1.54c-.55,0-.99-.44-1-.99,0,0,0-.01,0-.02l.19-18.63c0-.37-.13-.44-.42-.21h0Zm-53.27-46.74c-12.28,16.29-11.6,53.08,10.35,62.08,14.41,5.9,31.06.09,37.95-13.81,6.06-12.23,6.85-25.15,2.38-38.77-7.03-21.4-36.56-28.21-50.68-9.5h0Zm-709.4,4.59h.11c.07,0,.14-.05.16-.12,4.91-13.79,16.19-18.76,29.86-19.09.54-.01,1,.42,1.02.96l.08,1.77c.03.55-.4,1.02-.96,1.05-.02,0-.04,0-.06,0-18.13-.31-28.65,12.23-29.93,29.49-.45,6.21-.54,21.86-.26,46.95,0,.55-.44,1.01-.99,1.01-.02,0-.04,0-.06,0l-1.8-.09c-.53-.03-.95-.47-.95-1v-77.17c0-.53.42-.97.95-1l1.8-.1c.55-.03,1.02.4,1.05.95,0,.02,0,.04,0,.06l-.18,16.08c0,.14.07.25.16.25h0Zm-487.81,38.25c-.09.01-.16.09-.22.22-10.2,24.76-47.66,26.25-58.98,1.82-8.07-17.4-5.81-43.4,11.48-54.57,6.54-4.23,13.98-5.75,22.31-4.56,11.29,1.61,19.26,7.35,23.91,17.22,1.01,2.15,1.52,2.04,1.53-.34v-14.29c0-.55.45-1,1-1h1.99c.55,0,1,.45,1,1,.05,42.69.05,67.91-.02,75.68-.13,15.88-7.26,27.77-23.65,30.41-17.6,2.83-38.97-1.28-39.68-23.46-.02-.55.41-1.01.95-1.04l1.7-.07c.54-.03,1.01.39,1.04.94,1.13,18.79,20.6,23.3,35.89,19.77,25.53-5.9,18.59-28.91,19.95-47.44,0-.15-.07-.28-.17-.29-.01,0-.02,0-.03,0h0Zm-29.21-53.48c-37.31-.9-40.73,59.54-10.6,67.78,15,4.1,29.69-1.65,36.11-15.72,9.32-20.41.83-51.43-25.51-52.06Zm88.8,77.96c-50.85,11.67-60-73.02-14.77-81.18,49.27-8.9,57.67,71.34,14.77,81.18Zm-21.65-74.97c-28.92,15.21-23.14,73.11,13.6,72.13,41.37-1.1,42.37-69.77,3.76-75.14-6.13-.85-11.92.15-17.36,3.01Z" fill="#999999" stroke-width="0"/><path d="m554.5,644.12c-22.57-19.95-16.8-71.51,18.35-74.22,17.07-1.31,28.9,5.41,35.51,20.16,7.11,15.88,5.58,37.22-5.68,50.71-11.63,13.92-34.1,15.8-48.18,3.35Zm4.08-64.66c-25.54,19.3-14.35,76.18,24.57,68.31,27.13-5.48,33.01-45.19,16.78-63.85-10.73-12.35-28.48-14.19-41.35-4.46h0Zm320.89,50.9c-.09,0-.17.07-.22.2-6.47,15.09-17.38,22.31-32.71,21.68-34.15-1.42-39.12-45.55-25.28-68.33,8.48-13.96,27.81-18.3,42.09-11.21,6.52,3.23,11.32,8.19,14.39,14.88,1.02,2.22,1.53,2.11,1.52-.33v-13.39c0-.55.44-1,.99-1,0,0,0,0,0,0h2c.55,0,1,.45,1,1v75.91c0,.56-.45,1.01-1,1.01-.04,0-.07,0-.11,0l-1.93-.21c-.52-.05-.91-.49-.9-1l.2-18.96c0-.13-.01-.24-.04-.24,0,0,0,0,0,0h0Zm-44.43-53.99c-22.77,11.87-23.48,60.48,1.52,69.92,19.79,7.47,37.67-5.02,41.59-24.76,2.93-14.75.78-34.58-13.41-43.58-8.72-5.53-20.6-6.31-29.7-1.58h0Zm312.81,14.06l.14-16.58c0-.55.44-.99.99-.99,0,0,0,0,.01,0h1.77c.55,0,1,.45,1,1v75.75c0,.55-.45,1-1,1h-1.83c-.55,0-.99-.44-1-.99l-.11-18.51c0-.14-.03-.26-.07-.26-.12,0-.21.09-.27.24-4.92,13.09-15.46,20.61-29.52,21.18-44.69,1.83-46.8-74.66-8.02-82.15,16.24-3.13,31.85,4.06,37.48,20.31.04.14.18.22.3.19l.12-.03s.01-.05.01-.16h0Zm-55.97,43.24c11.01,21.54,41.42,18.47,51.32-1.91,6.25-12.88,6.87-33.8-1.5-45.87-10.53-15.19-35.06-17.76-46.89-1.97-10.55,14.09-10.54,34.87-2.93,49.75h0Zm184.94-20.82c.03,7.03,1.48,13.64,4.35,19.83,6.53,14.04,20.89,18.1,35.12,14.8,13.23-3.07,18.34-11.99,21.63-24.27.13-.45.56-.76,1.03-.73l1.61.09c.56.04.98.52.94,1.07,0,.03,0,.06,0,.08-5.43,36.29-58.23,39.69-66.87,2.92-5.29-22.52,1.64-53.9,29.3-56.92,10.99-1.19,20.11,1.74,27.36,8.79,9,8.76,11.04,20.46,11.26,32.36.01.55-.43,1.01-.98,1.02,0,0-.01,0-.02,0l-63.72-.05c-.55,0-1,.45-1,1h0s0,.01,0,.01Zm1.16-4.75h59.68c.55.01,1-.44,1-.99,0,0,0-.01,0-.02-.18-6.65-1.77-12.78-4.77-18.4-10.46-19.58-37.02-20.73-49.72-2.85-4.39,6.19-6.79,13.26-7.19,21.21-.03.55.4,1.02.95,1.05.02,0,.03,0,.05,0h0Zm137.82,4.74c-.07,5.21.84,10.7,2.75,16.49,5.49,16.65,21.98,22.21,37.9,17.78,11.86-3.31,17.65-12.26,20.15-23.74.09-.43.46-.75.91-.78l1.41-.09c.55-.03,1.03.38,1.06.93,0,.03,0,.06,0,.09-.03,1.65-.28,3.27-.73,4.87-3.57,12.49-11.74,20.14-24.5,22.97-32.01,7.08-45.34-19.31-42.76-46.5,2.21-23.22,20.65-40.54,44.84-34.08,7.96,2.13,14.25,7.37,18.44,14.64,4.45,7.72,6.41,16.22,5.88,25.51-.03.53-.47.94-1,.94l-63.35-.02c-.55,0-.99.44-1,.99h0Zm.86-4.74c19.75.15,39.7-.09,59.6-.02.55,0,1-.45,1-1,.02-14.03-7.6-29.07-21.97-32.74-22.92-5.86-37.73,11.64-39.61,32.67-.05.55.35,1.04.9,1.09.03,0,.06,0,.08,0Zm81.56-22.63c.47-.89.94-1.8,1.41-2.71,4.93-9.62,16.72-13.75,27.11-13.09.32.03.6.19.77.45,1.31,1.97.66,2.97-1.97,3.01-19.41.3-28.6,14.77-28.86,32.6-.21,14.61-.26,29.23-.14,43.86,0,.51-.38.95-.9,1l-1.67.17c-.55.06-1.04-.35-1.1-.9,0-.04,0-.08,0-.13.16-6.15.18-13.69.05-22.62-.22-15.08-.26-33.33-.12-54.76,0-.55.45-.99,1-.99h1.98c.55,0,1,.44,1.01.99h0s-.07,12.74-.07,12.74c-.01,2.18.49,2.31,1.5.38h0Zm280.24,45.08c-.07.07-.12.18-.17.31-5.27,14.5-18.02,22.34-33.21,21.44-45.38-2.68-41.65-88.83,7.01-82.56,13.3,1.71,22.09,8.88,26.38,21.51.15.42.32-.16.31-.26-.07-5.73-.05-11.47.05-17.2.01-.45.31-.83.74-.95,2.1-.58,3.15.26,3.16,2.51.06,24.77.05,49.52-.02,74.27,0,.55-.45,1-1,.99h-1.98c-.55,0-1-.45-1-1.01h0l.1-18.91c0-.37-.12-.41-.37-.14h0Zm-25.46-56.7c-48.89-8.21-46.94,85.01,1.03,73.71,33.14-7.8,33.78-67.87-1.03-73.71Z" fill="#999999" stroke-width="0"/><circle cx="272.38" cy="599.04" r="29.09" fill="#999999" stroke-width="0"/><path d="m1192.82,643.31c.51,1.25,1.01,1.25,1.48-.02,8.87-23.42,17.72-46.86,26.57-70.32.62-1.65,2.06-2.44,3.65-1.79.5.21.75.78.56,1.28-11.11,29.29-22.28,58.48-33.53,87.57-5.51,14.26-7.38,16.74-22.72,17.76-.55.04-1.03-.38-1.07-.93,0-.02,0-.05,0-.07v-1.92c0-.53.42-.96.95-.99,12.68-.68,13.73-1.84,18.43-13.18,1.41-3.39,2.81-7.05,4.2-10.96.08-.23.08-.49-.02-.72l-32.02-76.33c-.2-.49.01-1.06.49-1.29,1.85-.89,3.1-.4,3.74,1.45.33.95.5,1.45.52,1.49,9.73,22.93,19.32,45.92,28.77,68.97h0Zm186.32,1.22l26.97-72.66c.15-.41.56-.68,1.01-.65l2.02.13c.55.03.96.5.93,1.05,0,.1-.03.2-.06.3-9.45,25.17-18.92,50.34-28.39,75.49-.95,2.51-2.6,3.23-4.95,2.14-.21-.09-.37-.25-.47-.45-.89-1.73-2.05-4.32-3.47-7.76-9.56-23.14-19.03-46.32-28.41-69.54-.21-.51.04-1.1.56-1.31.02,0,.05-.02.07-.02,2.05-.64,3.4.02,4.04,1.98.27.83.42,1.27.45,1.34,9.36,23.35,18.76,46.68,28.21,69.98.51,1.27,1.01,1.27,1.49-.02h0Zm189.04-1.4l26.99-71.38c.17-.45.63-.72,1.1-.64l1.82.3c.55.09.91.61.82,1.16-.01.07-.03.13-.05.19-11.21,29.23-22.43,58.44-33.66,87.65-4.54,11.79-8.17,18.75-23.06,17.03-.5-.06-.88-.48-.88-.99v-1.58c0-.54.43-.98.97-1,8.79-.3,13.21-.21,17.05-9.09,2.14-4.94,4.12-9.95,5.93-15.04.08-.23.08-.49-.02-.72l-32.13-76.28c-.22-.5.02-1.08.53-1.3.13-.05.26-.08.4-.08h1.97c.41,0,.77.24.93.61l29.81,71.19c.51,1.23,1.01,1.22,1.48-.03Zm256.94-.01c.52,1.23,1.02,1.22,1.49-.03,8.9-23.55,17.89-47.07,26.96-70.58.38-1,1.36-1.42,2.93-1.27.55.05.95.54.9,1.09,0,.09-.03.18-.06.26-11.1,28.96-22.2,57.91-33.31,86.86-5.02,13.08-8.05,19.18-23.09,18.1-.52-.03-.93-.47-.93-.99v-1.65c0-.52.4-.95.92-.99,3.52-.3,7.76-.08,10.68-1.61,6.03-3.15,9.4-15.35,11.97-22.68.08-.24.08-.49-.02-.72l-32.04-76.16c-.21-.52.03-1.11.54-1.32.1-.04.2-.07.31-.07l1.89-.13c.43-.03.82.22.99.61l29.87,71.28h0Z" fill="#999999" stroke-width="0"/><rect x="903.25" y="571.37" width="3.94" height="79.22" rx=".94" ry=".94" fill="#999999" stroke-width="0"/><circle cx="219.8" cy="646.43" r="29.13" fill="#999999" stroke-width="0"/><path d="m1218.26,666.1c5.37-8.65,4.07-20.26,3.99-30.23,0-.55.44-1,.99-1.01,0,0,0,0,.01,0h1.69c.54,0,.98.43,1,.97.28,8.99,1.32,22.25-3.71,29.95-.58.89-1.5,1.6-2.77,2.14-.51.22-1.1-.01-1.32-.52-.05-.12-.08-.25-.08-.38,0-.39.06-.69.2-.92h0Z" fill="#999999" stroke-width="0"/><circle cx="153.22" cy="667.01" r="29.11" transform="translate(-522.97 772.56) rotate(-85.93)" fill="#999999" stroke-width="0"/></g></svg>