<svg xmlns="http://www.w3.org/2000/svg" viewBox="0 0 1167 338"><path d="M362.1 195.2c-59.13 44.22-161.48 22.73-179.66-55.15q-6.08-26.07 2.15-52.12C205.63 21.32 287.24.31 345.56 29.22c64.9 32.16 74.57 122.59 16.54 165.98Zm11.397-83.947a83.32 80.44-4.1 0 0-88.858-74.277 83.32 80.44-4.1 0 0-77.356 86.191 83.32 80.44-4.1 0 0 88.858 74.277 83.32 80.44-4.1 0 0 77.356-86.191ZM697.86 18.85a.91.32-53.2 0 1 .55-.37c13.26-.35 26.92.56 40.13-.26a1.29.67-12.7 0 1 .92.24q.48.5-1.02 1-37.2 12.53-57.63 20.1-.99.37-1.35-.06a.78.45-45.7 0 1 .21-.83l18.19-19.82ZM429.78 203.59c-.02-53.05-.21-106.15-.11-159.09a1.02 1.02-89.7 0 1 1.02-1.01q50.84.01 99.31.08c26.9.04 50.72 11.45 55.6 40.01 4.57 26.71-12.94 46.04-37.55 53.24a.92.91-25.4 0 0-.51 1.39q23.09 33.4 48.18 65.33.55.7-.28.7l-27.94.01a1.52 1.31-15.2 0 1-1.18-.56l-47.26-65.5a2.24 2.21 72 0 0-1.81-.94h-62.5a1.6 1.5 0 0 0-1.6 1.5l.07 64.75a.75.72 90 0 1-.72.75h-22.25a.66.47-90 0 1-.47-.66Zm100.72-86.06c17.48-.86 32.05-9.01 31.62-28.43-.4-17.4-15.92-26.15-31.62-26.1q-38.47.13-76.86-.16a.66.64 90 0 0-.64.66v53.75a.66.6-3.8 0 0 .74.59c4.09-.5 8.66-.15 12-.13q53.62.37 64.76-.18ZM40.98 187.27c40.61-.11 80.73-.46 121.86-.2a.45.44 0 0 1 .44.43l.26 16.25a1.04 1.03-.5 0 1-1.04 1.05l-144 .17a1.02.98-90 0 1-.98-1.02q-.04-73.36-.02-146.7 0-6.57.4-13.12a.67.6-88 0 1 .6-.63l20.82.08a.67.63-89.6 0 1 .62.67l.14 142.19a.89.83-.3 0 0 .9.83Zm81.09-86.61a.65.58-78.2 0 1-.51-.89l21.98-55.25A1.63 1.55-78.5 0 1 145 43.5h23a.64.55-73.8 0 1 .42.93l-29.77 55.49a1.05.44-66.3 0 1-.65.62l-15.93.12Zm527.12-38.87a.53.53 84.8 0 0-.43.52l-.01 49.69a.68.65 9.1 0 0 .48.63c2.52.77 5.33.16 7.26.15q40.6-.09 81.21.06a.54.47 0 0 1 .54.47l.01 16.44a1.49 1.26.2 0 1-1.5 1.26l-87-.24a.75.73 0 0 0-.75.73v54.25a.75.75 0 0 0 .75.75H767a1.17.82-.2 0 1 1.17.81l.19 16.44a.68.67 89.6 0 1-.67.69l-142.94-.14a.71.61 0 0 1-.71-.61l-.24-159.38a.76.74 0 0 1 .76-.74l142.44.42a.93.84-.3 0 1 .93.83L768.1 61a.7.59-9 0 1-.53.61c-3.18.77-6.62.14-8.96.14q-52.15.08-104.3-.36-2.65-.02-5.12.4Zm130.09 141.99c26.88-52.79 53.62-105.71 80.9-158.28a2.01 1.5-72.2 0 1 1.51-1.08l30.56.06a1 .39 66.6 0 1 .62.62L975 204.25a.49.41 74 0 1-.31.7l-26.2-.15a2.02 1.96 76.1 0 1-1.74-1.08l-20.65-39.8a1.05.8-9.9 0 0-.85-.44l-95.75-.03a2.68 2.58-76.2 0 0-2.34 1.48l-19.72 39.01a1 .6-70.1 0 1-.69.56h-27a.51.49 13.1 0 1-.47-.72Zm59.27-61.39a.47.47-76.5 0 0 .42.68l75.77-.13a.47.47 76.4 0 0 .41-.69l-38.01-74.16a.47.47 44.4 0 0-.84 0l-37.75 74.3Zm148.69 62.07c.09-52.92-.49-105.44-.17-158.77a.69.68-90 0 1 .68-.69H1009a1.15 1.14 0 0 1 1.15 1.14q.17 68.69.08 137.83c0 1.8-.51 4.19 2.4 3.54q.53-.12 1.37-.12l118.5.09a1.02 1.01 90 0 1 1.01 1.02v15.51a1.31 1.26 90 0 1-1.26 1.31l-144.44-.29a.57.57-90 0 1-.57-.57Zm-279.88 66.96c-4.07-6-1.64-14.86 4.07-19.22q7.48-5.71 17.52-6.52c14.09-1.12 38.99.06 39.99 19.52a.52.45 88.2 0 1-.44.55h-10a.94.92 85.3 0 1-.92-.8c-2.6-17.77-45.59-15.17-40.04 1.08.68 1.98 3.81 4.25 5.44 4.57q17.33 3.4 26.02 4.65c10.31 1.49 22.45 5.82 22.38 18.01-.13 20.23-31.23 20.47-44.69 18.82-11.93-1.47-23.28-7.64-24.29-21.17a1.14.99-89.3 0 1 1.1-1.23q4.63.57 9.24 0a.7.58 77.2 0 1 .66.5q.33 1.08 1.1 4.06c4.05 15.86 52.14 14.24 44.59-3.44-1.52-3.55-7.28-5.67-10.59-6.28q-23.65-4.39-27.99-5.3c-4.95-1.05-10.36-3.66-13.15-7.8Z"/><rect width="11.76" height="11.76" x="-5.88" y="-5.88" rx=".8" transform="rotate(-.1 144645.533 -383400.457)"/><path d="M386.56 310.88a1.38 1.06 89.6 0 1-1.08-1.38l-.05-62.25a.45.44-90 0 1 .44-.45q31.57-.63 44.64-.07c11.8.51 27.72 9.78 21.06 24.3-5.42 11.83-18.69 12.46-30.01 12.65q-11.51.2-23.08.02a.66.6 0 0 0-.67.61L398 310a.77.76 89.3 0 1-.75.78l-10.69.1Zm49.6-53.64c-9.83-5-27.04-3.47-37.92-3.13a.49.45-.6 0 0-.48.45l-.01 20.69a.62.6 89.5 0 0 .61.62q11.52-.13 23.03-.17c9.12-.02 22.12-2.3 17.86-14.89q-.81-2.41-3.09-3.57Zm20.78 53.57q-1.08 0-.53-.94l36.21-62.77a1.36 1.19 13.2 0 1 1.13-.6l14-.01a1.6 1.24 71.7 0 1 1.21.81l35.28 62.96a.33.3 73.8 0 1-.24.49l-13.5.01a1.61 1.54-13 0 1-1.41-.84l-8.77-16.73a2.22 1.95 74.6 0 0-1.82-1.2h-36.75a2.51 2.47-75.7 0 0-2.19 1.32l-9.15 16.86a1.15.99-74.2 0 1-.91.6l-12.56.04ZM485 283.04a.43.43-75.2 0 0 .37.64l28.65.3a.43.43-13.7 0 0 .38-.63l-14.05-26.4a.43.43 45.7 0 0-.75-.01l-14.6 26.1Zm130.91-.56a.56.5 63.7 0 0-.24.85l19.69 26.57q.47.63-.36.61l-12.75-.22a1.5 1.38-15.6 0 1-1.18-.6l-17.62-25.39a1.81 1.74 71.8 0 0-1.45-.77l-23.19-.06a.78.77 90 0 0-.77.78l.14 25.25a1.26 1.18 90 0 1-1.19 1.27l-10.67-.08a.53.44 0 0 1-.53-.44l-.28-62.75a.94.92 89.7 0 1 .91-.94q18.73-.21 37.73.05c9.97.13 23.37 1.95 27.36 12.29 4.49 11.65-5.01 21.03-15.6 23.58Zm2.25-23.05c-5.54-7.71-31.27-5.62-39.97-5.3a.34.31-1 0 0-.33.31l.11 20.81a.65.39 1.3 0 0 .63.4c10.57.24 26.38 1.84 36.07-2.55 5.17-2.35 6.53-9.43 3.49-13.67Z"/><rect width="11.92" height="46.3" x="-5.96" y="-23.15" rx=".52" transform="rotate(-.2 82597.187 -191714.013)"/></svg>