<?xml version="1.0" encoding="UTF-8"?><svg id="Layer_2" xmlns="http://www.w3.org/2000/svg" viewBox="0 0 200.5 53.2"><g id="Layer_1-2"><path d="m61.91,32.09c-10.62,7.94-29.01,4.08-32.28-9.91-.73-3.12-.6-6.24.39-9.36C33.8.86,48.46-2.92,58.94,2.28c11.66,5.78,13.4,22.02,2.97,29.82Zm2.05-15.08c-.57-7.96-7.72-13.94-15.96-13.34h0c-8.25.59-14.47,7.52-13.9,15.48,0,0,0,0,0,0,.57,7.96,7.72,13.94,15.96,13.34,8.25-.59,14.47-7.52,13.9-15.48,0,0,0,0,0,0ZM122.23.41s.07-.07.1-.07c2.38-.06,4.84.1,7.21-.05.07,0,.13.01.17.04.06.06,0,.12-.18.18-4.46,1.5-7.91,2.7-10.35,3.61-.12.04-.2.04-.24-.01-.03-.03-.01-.1.04-.15,0,0,3.27-3.56,3.27-3.56Zm-48.16,33.19c0-9.53-.04-19.07-.02-28.58,0-.1.08-.18.18-.18,6.09,0,12.04,0,17.84.01,4.83,0,9.11,2.06,9.99,7.19.82,4.8-2.32,8.27-6.75,9.56-.09.03-.14.12-.11.2,0,.02.01.03.02.05,2.77,4,5.65,7.91,8.66,11.74.07.08.05.13-.05.13h-5.02c-.09,0-.17-.04-.21-.1l-8.49-11.77c-.08-.11-.2-.17-.33-.17h-11.23c-.16,0-.29.12-.29.27h0v11.63c.01.07-.05.13-.12.13h-4s-.08-.05-.08-.12h0Zm18.09-15.46c3.14-.15,5.76-1.62,5.68-5.11-.07-3.13-2.86-4.7-5.68-4.69-4.61.02-9.21,0-13.81-.03-.06,0-.11.05-.11.12h0v9.66c0,.06.05.11.12.11,0,0,0,0,.01,0,.73-.09,1.56-.03,2.16-.02,6.42.04,10.3.03,11.63-.03ZM4.22,30.67c7.3-.02,14.5-.08,21.89-.04.04,0,.08.03.08.08l.05,2.92c0,.1-.08.19-.18.19,0,0,0,0,0,0l-25.87.03c-.1,0-.18-.08-.18-.18H0C0,24.88,0,16.09,0,7.31,0,6.52.03,5.74.07,4.95c0-.06.05-.11.11-.11h3.74c.06.02.11.07.11.13l.03,25.55c0,.08.07.15.16.15,0,0,0,0,0,0Zm14.57-15.56c-.06,0-.1-.05-.1-.11,0-.02,0-.03,0-.04l3.95-9.93c.04-.11.15-.18.26-.18h4.13c.06,0,.1.05.09.11,0,.02,0,.04-.02.05l-5.35,9.97c-.04.07-.08.11-.12.11,0,0-2.86.02-2.86.02Zm94.7-6.98s-.08.05-.08.09v8.93c0,.05.03.1.08.11.45.14.96.03,1.3.03,4.86-.01,9.73,0,14.59.01.05,0,.1.04.1.08v2.95c0,.13-.12.23-.27.23,0,0,0,0,0,0l-15.63-.04c-.07,0-.13.06-.13.13v9.75c0,.07.06.13.13.13h21.06c.12,0,.21.06.21.15l.03,2.95c0,.07-.05.12-.12.12,0,0,0,0,0,0l-25.68-.03c-.07,0-.13-.05-.13-.11h0s-.04-28.63-.04-28.63c0-.07.06-.13.14-.13h0l25.59.08c.09,0,.17.07.17.15l.03,2.91s-.04.1-.1.11c-.57.14-1.19.03-1.61.03-6.25,0-12.49-.01-18.74-.06-.32,0-.62.02-.92.07h0Zm23.37,25.51c4.83-9.48,9.63-18.99,14.53-28.44.06-.12.17-.19.27-.19h5.49s.08.05.11.12l14.76,28.59s.01.1-.02.12c0,0-.02,0-.03,0l-4.71-.03c-.13,0-.25-.08-.31-.19l-3.71-7.15s-.08-.08-.15-.08h-17.2c-.18,0-.34.1-.42.26l-3.54,7.01c-.03.06-.08.1-.12.1h-4.85c-.05,0-.09-.04-.09-.09,0-.01,0-.03,0-.04h0Zm10.65-11.03s0,.09.04.11c.01,0,.02,0,.04,0l13.61-.02s.08-.04.08-.09c0-.01,0-.03,0-.04l-6.83-13.32s-.07-.06-.11-.04c-.02,0-.03.02-.04.04l-6.78,13.35h0Zm26.71,11.15c.02-9.51-.09-18.94-.03-28.52,0-.07.05-.12.12-.12h3.82c.11,0,.21.09.21.2h0c.02,8.23.03,16.48.01,24.76,0,.32-.09.75.43.64.06-.01.15-.02.25-.02l21.29.02c.1,0,.18.08.18.18h0v2.79c0,.13-.1.24-.23.24h0l-25.95-.05c-.06,0-.1-.05-.1-.1h0s0,0,0,0Zm-50.28,12.03c-.73-1.08-.29-2.67.73-3.45.9-.68,1.95-1.07,3.15-1.17,2.53-.2,7,.01,7.18,3.51,0,.05-.03.1-.08.1,0,0,0,0,0,0h-1.8c-.08,0-.15-.06-.17-.14-.47-3.19-8.19-2.73-7.19.19.12.36.68.76.98.82,2.08.41,3.63.69,4.67.84,1.85.27,4.03,1.05,4.02,3.24-.02,3.63-5.61,3.68-8.03,3.38-2.14-.26-4.18-1.37-4.36-3.8,0-.11.06-.21.16-.22.01,0,.02,0,.03,0,.55.07,1.11.07,1.66,0,.05,0,.1.03.12.09.04.13.11.37.2.73.73,2.85,9.37,2.56,8.01-.62-.27-.64-1.31-1.02-1.9-1.13-2.83-.53-4.51-.84-5.03-.95-.89-.19-1.86-.66-2.36-1.4Z" stroke-width="0"/><rect x="116.06" y="41.22" width="2.11" height="2.11" rx=".14" ry=".14" transform="translate(-.07 .2) rotate(-.1)" stroke-width="0"/><path d="m66.31,52.88c-.11,0-.19-.11-.19-.24,0,0,0,0,0,0v-11.18s.03-.08.07-.08c3.78-.08,6.45-.08,8.02-.01,2.12.09,4.98,1.76,3.78,4.37-.97,2.13-3.36,2.24-5.39,2.27-1.38.02-2.76.03-4.15,0-.07,0-.12.05-.12.11,0,0,0,0,0,0l.03,4.62c0,.08-.06.14-.13.14h0l-1.92.02Zm8.91-9.64c-1.77-.9-4.86-.62-6.81-.56-.05,0-.09.04-.09.08v3.72c0,.06.05.11.11.11,0,0,0,0,0,0,1.38-.02,2.76-.03,4.14-.03,1.64,0,3.97-.41,3.21-2.68-.1-.29-.28-.5-.56-.64h0Zm3.73,9.62c-.13,0-.16-.06-.1-.17l6.51-11.28c.04-.07.12-.11.2-.11h2.52c.08,0,.17.05.22.14l6.34,11.31s0,.06-.02.08c0,0-.02,0-.03,0h-2.43c-.11,0-.21-.06-.25-.15l-1.58-3.01c-.07-.13-.19-.22-.33-.22h-6.6c-.16,0-.31.09-.39.24l-1.64,3.03c-.04.07-.1.11-.16.11h-2.26Zm5.04-4.99s0,.08.03.11c.01,0,.02,0,.04,0l5.15.05s.08-.03.08-.08c0-.01,0-.02,0-.04l-2.52-4.74s-.07-.05-.1-.03c-.01,0-.02.02-.03.03l-2.62,4.69h0Zm23.52-.1s-.08.06-.06.12c0,.01,0,.02.02.04l3.54,4.77c.06.08.03.11-.06.11l-2.29-.04c-.09,0-.17-.04-.21-.11l-3.17-4.56c-.06-.09-.16-.14-.26-.14h-4.17c-.08-.01-.14.05-.14.13h0s.03,4.54.03,4.54c0,.13-.09.23-.21.23,0,0,0,0,0,0h-1.92c-.05-.01-.1-.05-.1-.09h0s-.05-11.27-.05-11.27c0-.09.07-.17.16-.17,2.24-.03,4.5-.02,6.78,0,1.79.02,4.2.35,4.92,2.21.81,2.09-.9,3.78-2.8,4.24h0Zm.4-4.14c-1-1.39-5.62-1.01-7.18-.95-.03,0-.06.03-.06.06l.02,3.74s.05.07.11.07c1.9.04,4.74.33,6.48-.46.93-.42,1.17-1.69.63-2.46Z" stroke-width="0"/><rect x="116.1" y="44.45" width="2.14" height="8.32" rx=".09" ry=".09" transform="translate(-.17 .41) rotate(-.2)" stroke-width="0"/></g></svg>