<?xml version="1.0" encoding="UTF-8"?><svg id="Layer_2" xmlns="http://www.w3.org/2000/svg" viewBox="0 0 227.02 125.89"><g id="Layer_1-2"><path d="m60.6,0h5.25c54.08,3.11,80.45,66.36,42.95,106.41-20.33,21.71-53.64,25.67-78.82,9.86C9.76,103.58-3.44,78.57.79,53.76,5.93,23.6,29.95,1.73,60.6,0Zm-1.54,4.5c-3.84,2.92-6.61,8.22-3.54,12.59,3.42,4.87,12.23,5,13.08,11.93.59,4.78-3.69,9.17-3.65,14.3.19,22.27,34.35,10.93,35.74,29.1.03.31.13.53.3.65.37.25.56.15.59-.29,1.13-21-39.24-6.83-32.02-33.23,3.25-11.92.61-14.78-9.5-20.56-7.86-4.5-3.55-11.62,1.77-15.43.22-.15.27-.45.12-.67-.08-.11-.2-.18-.33-.2-6.67-.97-10.15,1.78-10.45,8.27,0,.19.06.35.19.48l.26.27c.33.32.52.25.57-.2.47-4.05,2.64-6.63,6.51-7.74.22-.06.44.06.5.29.04.16-.01.34-.14.44Zm11.56,6.5c-1.76,1.13-3.04,2.7-3.84,4.72-.13.34-.52.51-.86.37-.09-.04-.18-.1-.25-.17-2.1-2.3-2.47-4.73-1.1-7.28.14-.27.34-.49.6-.64l4.25-2.5c.2-.12.26-.38.14-.58-.1-.16-.29-.24-.48-.18-6.22,1.92-9.63,7.33-5.07,12.94,1.86,2.28,5.1,2.83,7.93,3.32.74.13,1.36.66,1.59,1.37.72,2.17,1.16,4.25,2.89,5.85,7.32,6.72,20.51,6.44,21.63-5.73.85-9.25-12.32-8.43-11.18,2.45.01.17-.08.27-.28.3-.34.04-.53-.11-.56-.45-.67-6.68,2.24-10.84,8.73-12.47.27-.07.54-.04.79.08.31.15.61.12.91-.08.38-.25.38-.49,0-.73-7.42-4.73-15.49-7.77-24.2-9.12-.31-.05-.47.08-.49.39l-.61,7.25c-.03.39-.21.68-.54.89Zm-44.24,55.27c-3.57-10.19-13.96,2.89-1.31,5.85,2.84.67,5.68.94,8.53.83.25,0,.45-.21.44-.46,0-.16-.09-.31-.23-.39-7.65-4.46,2.79-13.88,5.3-6.27.26.79.12.86-.42.23-.73-.85-1.64-1.3-2.73-1.33-.35,0-.62.14-.81.43-.7,1.1-.63,2.04.2,2.81,6.56,6.13,11.26-6.15,12.3-11.21,1.18-5.71,1.44-11.42.77-17.14-.03-.29-.29-.49-.58-.46-.21.02-.39.18-.44.39-.71,2.81-2.01,5.37-3.89,7.69-.69.84-1.94.97-2.78.28-.22-.18-.39-.4-.52-.65-2.22-4.47-5.73-14.56-9.8-16.8-.32-.18-.62-.16-.91.07-14.29,11.49-.48,33.49,7.48,20.98.1-.2.34-.28.54-.19.2.1.28.34.18.53-2.43,6.75-11.13,4.64-15.02.79-7.36-7.28-6.43-21.19,3.91-25.45.34-.14.35-.3.02-.47-.49-.26-1.03-.31-1.61-.16-9.98,2.7-10.59,11.02-11.74,20.07-.28,2.25-3.33,5.91-5.14,2.09-.08-.19.01-.41.2-.48.12-.05.25-.03.36.04l1.01.81c.25.2.51.2.77,0,.86-.62,1.26-1.37,1.2-2.24-1.72-25.51,15.89-24.35,34.37-25.29,2.76-.14,6.7-4.53,3.8-4.7-.37-.03-.67.11-.9.42l-1.77,2.41c-.21.28-.48.43-.83.46-1.44.08-2.54-.49-3.29-1.72-.49-.79-1.1-.91-1.84-.34-6.95,5.35-11.5-3.74-6.61-6.61.43-.25.78-.18,1.07.23l.43.61c.33.46.22.6-.32.41-2.68-.94-2.57,3.8.08,4.48,3.61.92,4.27-5.65,8.14-2.12.27.25.56.29.89.12.95-.5,1.42-1.37,1.42-2.6,0-3.15.95-6,2.82-8.53.08-.1.05-.25-.05-.32-.06-.04-.14-.06-.21-.04C17.13,12.59-1.13,39.38,2.7,72.14c.02.18.18.3.36.28.11-.01.21-.09.25-.19,1.23-2.82,3.31-3.62,6.22-2.4.55.23.96.08,1.21-.47,2.05-4.34,4.98-7.15,8.79-8.43,3.94-1.33,7.83.79,7.38,5.28-.08.83-.26.85-.53.06ZM97.43,14.76c.42.82,3.67,2.37,4.76,4.15.07.11.17.14.29.11.09-.03.18-.06.28-.1.27-.11.36-.3.26-.57-.89-2.41-2.56-3.85-5.03-4.33-.28-.05-.55.14-.6.42-.02.11,0,.22.04.32h0Zm-63.01,69.59c-7.03,5.36-13.29,13.58-2.77,20.11,3.74,2.33,6.92,4.22,9.99,7.64,1.97,2.19,3.98,4.32,6.05,6.41.15.16.34.24.57.24h.5c.16,0,.29-.13.29-.29,0-.07-.03-.15-.08-.2-8.62-8.97-11.59-22.85-3.98-33.29.1-.13.1-.27-.01-.4-.17-.21-.35-.22-.54-.03-6.33,6.27-8.16,13.75-5.49,22.43.12.37.02.45-.31.24-2.21-1.47-4.43-2.93-6.65-4.38-8.5-5.54-2.49-12.7,3.36-17.28,3.44-2.69,10.61-7.72,21.52-15.09,19.98-13.5-1.77-16.41,1.27-28.28,1.17-4.55,6.34-7.14,7.02-11.75.93-6.29-8.42-7.39-11.95-12.18-.12-.19-.37-.24-.55-.12-.15.1-.22.28-.17.45,1.31,5.57,15.03,6.51,9.24,13.39-4.91,5.85-8.56,11.44-3.04,18.88,2.98,4.01,7.93,8.47,2.97,13.52-7.7,7.86-18.45,13.28-27.24,19.98Zm59.13-46.1c5.7-.16,15.86-4.5,15.23-11.58-.28-3.17-3.52-6.04-6.78-4.93-2.94.99-4.52,5.72-.43,6.5,1.17.23,1.26.01.25-.64-4.34-2.83,1.72-7.21,3.62-3.23,1.09,2.3.39,4.46-2.11,6.47-6.94,5.58-13.72,7.99-21.66,3.07-.16-.08-.36-.02-.45.14-.06.12-.05.26.04.36.83.91,1.91,1.61,3.24,2.08,6.35,2.26,13.44,5.25,14.92,12.61.07.34.26.44.58.3,1.29-.54-1.06-5.33-1.62-6.1-1.19-1.63-3.28-3.03-5.03-4.47-.46-.37-.39-.57.2-.58Zm-55.7,32.94c-.43-.05-4.07-2.56-4.28-2.45-.31.17-.36.39-.14.67,4.32,5.42,12.29,3.18,17.39.11,4.15-2.5,6.22-6.03,6.21-10.58-.01-5.89-4.79-10.67-4.67-16.35.15-7.08,6.05-8.7,6.65-14.39.03-.32-.03-.62-.2-.89-3.1-5.04-11.75-5.13-16.45-3.81-.15.06-.22.23-.16.38.04.11.15.18.26.18,4.22-.29,13.5-.43,15.1,4.22.11.33.08.64-.09.94-2.95,5.08-7.52,8.16-6.64,15.04.45,3.48,3.18,7.69,3.52,11.18.85,9.03-7.6,16.71-16.5,15.75Zm-3.98-43.61c-.21,3.08,6.62,9.8,7.82,13.58.11.34.47.52.8.42.2-.06.35-.22.42-.42l4.83-14.73c.12-.35-.07-.72-.41-.84-.06-.02-.12-.03-.18-.03-4.31-.28-8.53.15-12.68,1.29-.34.09-.58.38-.6.73Zm85.58,17.5c-5.55,2.56-11.32.22-15.25-4.07-.32-.35-.29-.88.05-1.2.05-.05.11-.09.17-.12,4.25-2.31,7.08-5.77,8.5-10.38.03-.11,0-.19-.12-.22-.09-.03-.19-.07-.3-.1-.27-.09-.45-.01-.55.25-2.09,5.35-5.83,9.03-11.22,11.04-.49.18-.55.46-.19.84,4.54,4.81,13.11,9.82,19.18,5.13.53-.41.65-.76.38-1.05-.19-.19-.4-.23-.65-.12Zm-97.59,1.9c-.69-6.54-.97-11.35,4-16.9.77-.86.65-1.02-.38-.49-5.97,3.11-6.3,12.08-4.09,17.51.43,1.07.59,1.03.47-.12Zm92.43-11.23c.03-.35.4-.5,1.1-.44.34.03.66.12.96.28l1.4.74c.85.45,1.03.26.54-.57l-3.5-5.95c-.31-.53-.53-.49-.66.11-.67,3.23-2.15,6.05-4.44,8.47-.88.94-.84,2.41.09,3.29.12.11.25.21.39.3,5.86,3.59,12.57-3.32,4.52-5.63-.3-.09-.43-.29-.4-.6Zm-28.46,5.09c.22-.01.39-.11.52-.29l.17-.22c.15-.21.11-.37-.14-.47-2.84-1.08-5.29-2.76-7.35-5.03-.18-.2-.49-.22-.69-.04-.16.14-.21.37-.13.57l2.16,5.31c.17.4.47.58.9.55,0,0,4.56-.38,4.56-.38Zm5.53,11.2c.11-.2.37-.28.57-.16.11.06.19.17.21.29.17,1.13.72,2.03,1.67,2.7.3.21.6.21.89,0,4.14-2.95.63-12-4.18-12.45-2.79-.26-8.25,2.51-11.11,3.6-.75.29-1.59-.09-1.87-.83,0-.02-.01-.03-.02-.05l-3.11-9.1c-.09-.27-.38-.41-.65-.32-.15.05-.28.18-.32.33-2.16,7.06-2.16,13.61,5.9,16.49,6.54,2.34,14.21,4.65,19.59,7.99,10.03,6.21,15.92,15.57,17.69,28.07.05.29.33.48.61.43.19-.03.34-.16.41-.34,1.64-4.97-6.63-32.02,6.43-27.05.49.19.69.02.62-.5l-2.15-14.62c-.05-.3-.33-.5-.63-.46-.21.03-.38.18-.43.38-1.63,5.43-9.58,4.46-13.31,2.74-1.05-.49-2.12-1.42-3.31-2.03-.37-.19-.55-.07-.52.35.94,13.88-15.85,9.82-12.98,4.54Zm-25.13,15.4c-5.27,4.22-11.77,8.63-15.59,13.4-9.29,11.61-7.61,27.99,2.79,37.92,3.32,3.16,13.98,8.9,16.77,2.33,1.81-4.27-4.92-6.62-5.35-1.62-.05.66.14.74.59.25l1.32-1.46c.21-.23.47-.31.77-.23.72.17,1.09.97,1.01,1.71-.64,5.92-10.6.63-12.66-1.66-7.43-8.24-9.38-17.66-5.84-28.26,3.19-9.55,9.9-14.57,17.1-20.66,6.42-5.43,3.61-12.02-1.89-16.8-.07-.06-.13-.06-.2,0l-.21.21c-.15.15-.15.31-.01.47,3.97,4.62,6.52,10.3,1.4,14.4h0Zm55.89-.59c.17-.31.42-.52.76-.65.36-.13.63-.36.81-.71.58-1.15.28-2.09-.91-2.83-.76-.46-1.75-.23-2.21.53-.05.09-.1.18-.14.28-.4,1.09-.56,2.5-.28,3.74.89,4,1.38,7.92,1.45,11.75.01.27.24.48.51.46.22-.01.41-.17.46-.39l1.88-11.8c.11-.65-.14-.84-.75-.57l-1.23.57c-.49.23-.61.1-.35-.38h0Zm-39.74,21.74c-.04-.15.05-.31.2-.36.08-.02.17,0,.23.04,7.12,4.62,18.14-1.63,16.01-10.34-1.05-4.34-6.53-6.1-10.66-7.65-4.38-1.64-6.83-3.74-9.32-7.35-.1-.15-.4-.25-.54-.2-.19.07-.24.2-.15.39,2.15,4.47,5.11,7.29,8.86,8.46,4.82,1.5,11.2,3.57,10.32,8.9-1.43,8.64-9.15,9.25-15.82,6.27-.32-.15-.7-.01-.85.31-.06.13-.08.29-.04.43,1.12,4.61,3.6,7.41,7.43,8.41,8.91,2.31,17.12-4.8,18.72-13.53.58-3.13-.35-6.35-1.08-9.52-.25-1.11-.07-1.19.55-.23,3.14,4.87,4.66,13.56,5.23,19.3.01.18.17.32.35.3,0,0,.02,0,.03,0,1.5-.2-.82-11.39-1.2-12.75-1.14-4.16-3.19-7.82-6.15-10.98-.16-.16-.42-.16-.58,0-.1.1-.14.24-.11.38,2.22,8.33-.1,19.44-8.71,23.04-3.53,1.47-11.27,1.55-12.72-3.32Zm5.19-7.4c-.81-.93-1.76-1.56-2.85-1.87-.3-.09-.59-.06-.86.08-6.83,3.59,4.24,10.19,8.42,2.35.92-1.72-.52-3.7-2.08-4.5-6.85-3.54-11.77-5.72-15.02-12.46-.23-.47-.51-.51-.85-.12l-1.54,1.78c-.25.29-.37.62-.35,1,.17,3.68-1.33,7.15-1.62,10.12-.98,10.09-.94,26.85,7.78,34.16.27.23.58.33.93.31l10.09-.64c.24-.02.41-.23.4-.46,0-.12-.07-.23-.17-.3-6.85-4.99,4.19-12.42,7.41-5.47.57,1.25.39,1.37-.55.37-1.24-1.31-2.61-1.57-4.12-.78-.39.2-.57.52-.56.96.06,1.56.75,2.64,2.06,3.23,10.65,4.82,15.29-8.35,13.56-16.32-.07-.33-.4-.55-.74-.47-.15.03-.28.12-.37.24-4.29,5.96-11.64,9.3-18.77,7.04-7.47-2.37-12.36-10.79-8.33-18.17,2.19-4,6.46-4.74,8.79-.24.08.15.03.23-.14.22-.1,0-.21,0-.32.01-.08.01-.15-.01-.2-.07Zm-70.8,9.92c-1.91-5.93-2.17-11.91-.76-17.93.09-.37.46-.6.83-.51.12.03.23.09.32.17,6.15,5.84,19.23,4.84,26.94,2.12,1.25-.45,1.22-.61-.1-.48-3.84.37-7.65.78-11.44,1.23-4.78.57-17.54-2.07-16.09-9.99.03-.19-.11-.37-.3-.4-.13-.02-.27.04-.34.16-9.62,16.65-1.89,35.74,14.89,43.69,2.65,1.26,13.3,11.77,14.59,11.31.33-.11.36-.28.1-.5-3.55-3.11-6.99-6.34-10.33-9.69-3.69-3.7-8.98-4.81-12.19-9.04-3.61-4.75-4.42-10.27-2.45-16.58.74-2.33,3.2-5.01,5.88-4.16,4.15,1.31,1.12,8.23-2.61,4.9-.22-.19-.43-.18-.62.04-1.02,1.16,3.11,2.79,5.34.93,5.41-4.5-3.81-12.24-8.81-5.3-1.99,2.77-2.73,6.05-2.2,9.86.02.11-.03.19-.14.23l-.24.08c-.13.04-.22,0-.27-.14h0Zm-10.56-14.16l-.23.23c-.21.21-.38.18-.52-.07-.31-.57-.77-.86-1.38-.87-.37,0-.5.17-.41.52,1.97,7.83,6.74,20.3,12.85,25.82.09.08.15.06.18-.06.03-.1.07-.2.12-.31.11-.25.08-.48-.09-.69-5.59-7.06-8.43-14.89-8.52-23.5-.03-2.21-.6-4.02-1.73-5.41-.33-.41-.68-.42-1.03-.03l-1.08,1.21c-.39.43-.36.85.07,1.24l1.76,1.6c.12.1.12.21.01.32Zm58.44-2.09c-4.07,4.18-7.27,8.63-9.6,13.34-6.73,13.65,4.09,21.5,16.13,22.98.53.06.63-.12.31-.54-.88-1.15-2.04-1.91-3.49-2.26-.88-.21-1.43-1.09-1.22-1.97.01-.06.03-.11.05-.16,4.16-12.01-6.56-19.17-1.03-30.58,1.28-2.65.9-2.92-1.15-.81Zm30.56,37.35c.18.04.3.22.27.4-.02.08-.07.16-.14.21-5.3,3.59-11.06,6.13-17.29,7.64-.33.08-.5-.05-.49-.4.31-9.77-14.12-9.78-14.5-2.31-.02.35.15.52.5.49.25-.02.42-.17.51-.45,2.27-6.59,11.15-4.46,11.51,2.59.02.29-.03.57-.16.83l-.37.78c-.28.58-.1.81.53.68,8.6-1.71,16.43-5.18,23.5-10.41.15-.11.18-.33.06-.48-.07-.09-.17-.13-.27-.13-4.17.1-7.08-1.75-8.73-5.55-.1-.23-.36-.33-.59-.23-.05.02-.1.05-.14.09-1.99,2.06,4.19,5.96,5.8,6.25Zm73.68-55.79c2.28,7.01-1.68,14.57-8.84,16.9,0,0,0,0,0,0-7.16,2.33-14.81-1.47-17.09-8.47,0,0,0,0,0,0-2.28-7.01,1.68-14.57,8.84-16.9,0,0,0,0,0,0,7.16-2.33,14.81,1.47,17.09,8.47,0,0,0,0,0,0Zm-19.73,14.58c4.98,3.29,12.08,1.32,15.85-4.39,0,0,0,0,0,0,3.77-5.71,2.78-13.01-2.2-16.29,0,0,0,0,0,0-4.98-3.29-12.08-1.32-15.85,4.39,0,0,0,0,0,0-3.77,5.71-2.78,13.01,2.2,16.29,0,0,0,0,0,0Z" fill="#999999" stroke-width="0"/><path d="m173.54,50.26v22.24c0,.33-.17.5-.5.5h-1.1c-.41,0-.61-.2-.61-.6v-22.92c-.01-.64.31-.96.94-.97,3.22-.06,8.15-.69,10.72,1.91,3.32,3.37.51,7.75-3.55,8.73-.43.1-.69.54-.59.97.02.09.06.18.12.26l8.24,11.77c.18.25.12.6-.14.78-.11.08-.24.11-.37.1l-1.01-.1c-.32-.03-.57-.18-.74-.45l-8.66-13.05c-.22-.33-.13-.51.27-.52,8.57-.4,7.66-10.2-2.51-9.22-.34.03-.51.22-.51.57h0Z" fill="#999999" stroke-width="0"/><rect x="188.77" y="48.53" width="2.28" height="24.42" rx=".31" ry=".31" fill="#999999" stroke-width="0"/><path d="m204.55,59.58c4.13.57,7.17,4.31,5.42,8.39-2.19,5.08-8.79,5.42-14.27,4.79-.28-.03-.42-.19-.42-.47l-.02-23.28c0-.36.18-.54.55-.53,2.96.1,6.41-.47,9.5,1,4.59,2.17,3.65,7.24-.89,9.07-.27.12-.4.43-.28.71.07.17.23.29.41.32Zm-6.56-.82c10.32,1.62,10.95-11.87.09-8.76-.36.11-.54.35-.54.72v7.51c0,.31.15.48.45.53Zm2.01,13.26c11.95-.37,10.26-13.78-2.08-12.18-.33.04-.5.23-.49.56l.16,9.32c.02,1.29,1.09,2.32,2.38,2.3.01,0,.02,0,.03,0Zm14.55-11.69c0,1.4-.76,9.33.96,11.25.25.28.57.42.95.42h8c.39,0,.76-.1,1.09-.3l.81-.48c.43-.25.65-.13.66.37.06,2.29-12.15,1.41-14.06,1.39-.29,0-.44-.15-.44-.45v-23.51c0-.35.16-.52.5-.52h10.89c.42,0,.63.21.63.63v.25c0,.38-.19.56-.56.55l-8.6-.23c-.45,0-.67.21-.67.66v7.6c0,.36.18.54.54.54h6.98c.23,0,.39.11.47.33.69,1.8-7.28.79-7.41.78-.49-.01-.74.23-.74.72Z" fill="#999999" stroke-width="0"/></g></svg>