<?xml version="1.0" encoding="UTF-8"?><svg id="Layer_2" xmlns="http://www.w3.org/2000/svg" viewBox="0 0 1116.02 296.15"><g id="Layer_1-2"><path d="m344.61,178.64c-59.13,44.22-161.48,22.73-179.66-55.15-4.05-17.38-3.34-34.75,2.15-52.12C188.14,4.76,269.75-16.25,328.07,12.66c64.9,32.16,74.57,122.59,16.54,165.98Zm11.4-83.95c-3.18-44.31-42.96-77.57-88.86-74.28h0c-45.9,3.29-80.53,41.88-77.36,86.19,0,0,0,0,0,0,3.18,44.31,42.96,77.57,88.86,74.28,45.9-3.29,80.53-41.88,77.36-86.19,0,0,0,0,0,0ZM680.37,2.29c.2-.22.41-.36.55-.37,13.26-.35,26.92.56,40.13-.26.41-.02.75.06.92.24.32.33-.02.67-1.02,1-24.8,8.35-44.01,15.05-57.63,20.1-.66.25-1.11.23-1.35-.06-.15-.17-.06-.53.21-.83,0,0,18.19-19.82,18.19-19.82Zm-268.08,184.74c-.02-53.05-.21-106.15-.11-159.09,0-.56.46-1.01,1.02-1.01,33.89,0,67,.03,99.31.08,26.9.04,50.72,11.45,55.6,40.01,4.57,26.71-12.94,46.04-37.55,53.24-.49.14-.77.65-.63,1.13.03.09.07.18.12.26,15.39,22.27,31.45,44.04,48.18,65.33.37.47.27.7-.28.7h-27.94c-.49.01-.93-.2-1.18-.55l-47.26-65.5c-.42-.59-1.09-.94-1.81-.94h-62.5c-.88,0-1.6.67-1.6,1.5h0l.07,64.75c0,.41-.32.75-.72.75h-22.25c-.26,0-.47-.3-.47-.66h0Zm100.72-86.06c17.48-.86,32.05-9.01,31.62-28.43-.4-17.4-15.92-26.15-31.62-26.1-25.65.09-51.27.03-76.86-.16-.35,0-.64.3-.64.66h0v53.75c0,.33.29.6.66.6.03,0,.06,0,.08,0,4.09-.5,8.66-.15,12-.13,35.75.25,57.33.19,64.76-.18ZM23.49,170.71c40.61-.11,80.73-.46,121.86-.2.24,0,.43.19.44.43l.26,16.25c.01.57-.45,1.04-1.02,1.05,0,0-.01,0-.02,0l-144,.17c-.54,0-.98-.46-.98-1.02H.03C0,138.49,0,89.59,0,40.69,0,36.31.14,31.94.41,27.57c.02-.35.28-.63.6-.63l20.82.08c.34,0,.62.3.62.67l.14,142.19c0,.46.4.83.89.83,0,0,0,0,.01,0Zm81.09-86.61c-.32,0-.57-.28-.56-.64,0-.09.02-.17.05-.25l21.98-55.25c.25-.62.83-1.02,1.46-1.02h23c.31,0,.53.29.51.64,0,.1-.04.2-.09.29l-29.77,55.49c-.2.37-.46.61-.65.62,0,0-15.93.12-15.93.12Zm527.12-38.87c-.25.05-.43.27-.43.52v49.69c-.01.29.18.54.47.63,2.52.77,5.33.16,7.26.15,27.07-.06,54.14-.04,81.21.06.3,0,.54.21.54.47v16.44c.01.7-.66,1.26-1.48,1.26,0,0,0,0-.01,0l-87-.24c-.41,0-.75.33-.75.73v54.25c0,.41.34.75.75.75h117.25c.64,0,1.16.36,1.17.81l.19,16.44c0,.38-.29.68-.66.69,0,0,0,0-.01,0l-142.94-.14c-.39,0-.71-.27-.71-.61h0s-.24-159.38-.24-159.38c0-.41.34-.74.76-.74h0l142.44.42c.51,0,.92.37.93.83l.17,16.18c0,.28-.21.53-.53.61-3.18.77-6.62.14-8.96.14-34.77.05-69.53-.07-104.3-.36-1.77-.01-3.47.12-5.12.4h0Zm130.09,141.99c26.88-52.79,53.62-105.71,80.9-158.28.35-.66.93-1.08,1.51-1.08l30.56.06c.18,0,.43.25.62.62l82.13,159.15c.12.24.06.53-.13.65-.05.03-.11.05-.18.05l-26.2-.15c-.73,0-1.39-.42-1.74-1.08l-20.65-39.8c-.14-.26-.47-.43-.85-.44l-95.75-.03c-.98,0-1.89.57-2.34,1.48l-19.72,39.01c-.18.34-.45.56-.69.56h-27c-.28,0-.52-.21-.52-.48,0-.08.02-.16.05-.24h0Zm59.27-61.39c-.12.23-.02.51.21.63.07.03.14.05.21.05l75.77-.13c.26,0,.47-.22.46-.48,0-.07-.02-.15-.05-.21l-38.01-74.16c-.12-.23-.4-.33-.63-.21-.09.05-.16.12-.21.21l-37.75,74.3h0Zm148.69,62.07c.09-52.92-.49-105.44-.17-158.77,0-.38.3-.69.68-.69h21.25c.64,0,1.15.51,1.15,1.14h0c.11,45.79.14,91.74.08,137.83,0,1.8-.51,4.19,2.4,3.54.35-.08.81-.12,1.37-.12l118.5.09c.56,0,1.01.46,1.01,1.02h0v15.51c0,.72-.56,1.31-1.26,1.31h0l-144.44-.29c-.31,0-.57-.26-.57-.57h0s0,0,0,0Zm-279.88,66.96c-4.07-6-1.64-14.86,4.07-19.22,4.99-3.81,10.83-5.98,17.52-6.52,14.09-1.12,38.99.06,39.99,19.52.02.29-.17.53-.42.55,0,0-.01,0-.02,0h-10c-.46,0-.85-.34-.92-.8-2.6-17.77-45.59-15.17-40.04,1.08.68,1.98,3.81,4.25,5.44,4.57,11.55,2.27,20.23,3.82,26.02,4.65,10.31,1.49,22.45,5.82,22.38,18.01-.13,20.23-31.23,20.47-44.69,18.82-11.93-1.47-23.28-7.64-24.29-21.17-.04-.63.36-1.18.91-1.23.06,0,.13,0,.19,0,3.09.38,6.17.38,9.24,0,.28-.04.56.17.66.5.22.72.59,2.07,1.1,4.06,4.05,15.86,52.14,14.24,44.59-3.44-1.52-3.55-7.28-5.67-10.59-6.28-15.77-2.93-25.1-4.69-27.99-5.3-4.95-1.05-10.36-3.66-13.15-7.8Z" stroke-width="0" fill="#999999"/><rect x="646" y="229.44" width="11.76" height="11.76" rx=".8" ry=".8" transform="translate(-.41 1.14) rotate(-.1)" stroke-width="0" fill="#999999"/><path d="m369.07,294.32c-.59.01-1.07-.6-1.08-1.36,0,0,0-.01,0-.02l-.05-62.25c0-.25.2-.45.44-.45,21.05-.42,35.93-.44,44.64-.07,11.8.51,27.72,9.78,21.06,24.3-5.42,11.83-18.69,12.46-30.01,12.65-7.67.13-15.37.14-23.08.02-.36,0-.66.26-.67.59,0,0,0,.01,0,.02l.19,25.69c0,.43-.33.77-.75.78h0l-10.69.1Zm49.6-53.64c-9.83-5-27.04-3.47-37.92-3.13-.27,0-.48.21-.48.45v20.69c0,.34.26.62.59.62,0,0,0,0,0,0,7.68-.09,15.36-.14,23.03-.17,9.12-.02,22.12-2.3,17.86-14.89-.54-1.61-1.57-2.8-3.09-3.57h0Zm20.78,53.57c-.72,0-.9-.31-.53-.94l36.21-62.77c.22-.37.65-.6,1.13-.6h14c.46-.01.92.3,1.21.8l35.28,62.96c.09.16.05.36-.09.45-.04.03-.1.04-.15.04h-13.5c-.6,0-1.15-.32-1.41-.83l-8.77-16.73c-.38-.74-1.08-1.2-1.82-1.2h-36.75c-.91,0-1.75.51-2.19,1.32l-9.15,16.86c-.2.37-.55.59-.91.6l-12.56.04Zm28.06-27.77c-.12.21-.04.47.17.59.06.04.13.05.2.05l28.65.3c.24,0,.43-.19.43-.43,0-.07-.02-.14-.05-.2l-14.05-26.4c-.11-.21-.37-.29-.58-.17-.07.04-.13.09-.17.16l-14.6,26.1h0Zm130.91-.56c-.27.06-.42.36-.34.65.02.07.05.14.1.2l19.69,26.57c.31.42.19.62-.36.61l-12.75-.22c-.48,0-.92-.23-1.18-.6l-17.62-25.39c-.34-.48-.88-.77-1.45-.77l-23.19-.06c-.43,0-.77.35-.77.78h0s.14,25.25.14,25.25c0,.7-.52,1.26-1.17,1.27,0,0-.01,0-.02,0l-10.67-.08c-.29,0-.53-.2-.53-.44h0s-.28-62.75-.28-62.75c0-.52.41-.93.91-.94,12.49-.14,25.06-.12,37.73.05,9.97.13,23.37,1.95,27.36,12.29,4.49,11.65-5.01,21.03-15.6,23.58h0Zm2.25-23.05c-5.54-7.71-31.27-5.62-39.97-5.3-.18,0-.33.14-.33.31l.11,20.81c0,.21.28.39.63.4,10.57.24,26.38,1.84,36.07-2.55,5.17-2.35,6.53-9.43,3.49-13.67Z" stroke-width="0" fill="#999999"/><rect x="646.25" y="247.43" width="11.92" height="46.3" rx=".52" ry=".52" transform="translate(-.94 2.28) rotate(-.2)" stroke-width="0" fill="#999999" /></g></svg>