<svg xmlns="http://www.w3.org/2000/svg" viewBox="0 0 300 126"><path fill="#231f20" d="M96.81 0h5.25c54.08 3.11 80.45 66.36 42.95 106.41-20.33 21.71-53.64 25.67-78.82 9.86C45.97 103.58 32.77 78.57 37 53.76 42.14 23.6 66.16 1.73 96.81 0Zm-1.54 4.5c-3.84 2.92-6.61 8.22-3.54 12.59 3.42 4.87 12.23 5 13.08 11.93.59 4.78-3.69 9.17-3.65 14.3.19 22.27 34.35 10.93 35.74 29.1q.04.47.3.65.55.37.59-.29c1.13-21-39.24-6.83-32.02-33.23 3.25-11.92.61-14.78-9.5-20.56-7.86-4.5-3.55-11.62 1.77-15.43a.48.48 0 0 0-.21-.87q-10-1.46-10.45 8.27-.01.28.19.48l.26.27q.49.48.57-.2.71-6.07 6.51-7.74a.42.41-71.5 0 1 .36.73Zm11.56 6.5q-2.64 1.69-3.84 4.72a.67.66 34.6 0 1-1.11.2q-3.15-3.45-1.1-7.28.21-.41.6-.64l4.25-2.5a.42.42 0 0 0-.34-.76c-6.22 1.92-9.63 7.33-5.07 12.94 1.86 2.28 5.1 2.83 7.93 3.32a2.04 2.03-4.1 0 1 1.59 1.37c.72 2.17 1.16 4.25 2.89 5.85 7.32 6.72 20.51 6.44 21.63-5.73.85-9.25-12.32-8.43-11.18 2.45q.02.26-.28.3-.51.06-.56-.45-1-10.02 8.73-12.47.41-.1.79.08.46.22.91-.08.57-.37 0-.73-11.13-7.1-24.2-9.12-.46-.07-.49.39l-.61 7.25q-.05.58-.54.89ZM62.59 66.27c-3.57-10.19-13.96 2.89-1.31 5.85q4.26 1 8.53.83a.46.45 59.1 0 0 .21-.85c-7.65-4.46 2.79-13.88 5.3-6.27q.39 1.18-.42.23-1.09-1.28-2.73-1.33-.53-.01-.81.43-1.05 1.65.2 2.81c6.56 6.13 11.26-6.15 12.3-11.21q1.77-8.56.77-17.14a.52.52 0 0 0-1.02-.07q-1.07 4.21-3.89 7.69a1.98 1.97-38.6 0 1-3.3-.37c-2.22-4.47-5.73-14.56-9.8-16.8q-.48-.27-.91.07c-14.29 11.49-.48 33.49 7.48 20.98a.4.4 0 0 1 .72.35c-2.43 6.75-11.13 4.64-15.02.79-7.36-7.28-6.43-21.19 3.91-25.45q.51-.21.02-.47-.74-.39-1.61-.16c-9.98 2.7-10.59 11.02-11.74 20.07-.28 2.25-3.33 5.91-5.14 2.09a.37.37 0 0 1 .56-.44l1.01.81q.38.3.77.01 1.29-.93 1.2-2.24c-1.72-25.51 15.89-24.35 34.37-25.29 2.76-.14 6.7-4.53 3.8-4.7q-.56-.04-.9.42l-1.77 2.41q-.31.42-.83.46-2.16.12-3.29-1.72-.73-1.19-1.84-.34c-6.95 5.35-11.5-3.74-6.61-6.61q.64-.38 1.07.23l.43.61q.49.69-.32.41c-2.68-.94-2.57 3.8.08 4.48 3.61.92 4.27-5.65 8.14-2.12q.4.37.89.12 1.42-.75 1.42-2.6.01-4.73 2.82-8.53a.24.23 9.5 0 0-.26-.36c-31.73 9.24-49.99 36.03-46.16 68.79a.32.32 0 0 0 .61.09q1.85-4.23 6.22-2.4.83.35 1.21-.47 3.07-6.51 8.79-8.43c3.94-1.33 7.83.79 7.38 5.28q-.12 1.24-.53.06Zm71.05-51.51c.42.82 3.67 2.37 4.76 4.15q.11.16.29.11.13-.04.28-.1.41-.16.26-.57-1.33-3.61-5.03-4.33a.52.52 0 0 0-.56.74ZM70.63 84.35c-7.03 5.36-13.29 13.58-2.77 20.11 3.74 2.33 6.92 4.22 9.99 7.64q2.95 3.28 6.05 6.41.23.24.57.24h.5a.29.29 0 0 0 .21-.49c-8.62-8.97-11.59-22.85-3.98-33.29q.15-.2-.01-.4-.25-.31-.54-.03-9.5 9.41-5.49 22.43.18.56-.31.24-3.32-2.21-6.65-4.38c-8.5-5.54-2.49-12.7 3.36-17.28q5.16-4.04 21.52-15.09c19.98-13.5-1.77-16.41 1.27-28.28 1.17-4.55 6.34-7.14 7.02-11.75.93-6.29-8.42-7.39-11.95-12.18a.4.4 0 0 0-.72.33c1.31 5.57 15.03 6.51 9.24 13.39-4.91 5.85-8.56 11.44-3.04 18.88 2.98 4.01 7.93 8.47 2.97 13.52-7.7 7.86-18.45 13.28-27.24 19.98Zm59.13-46.1c5.7-.16 15.86-4.5 15.23-11.58-.28-3.17-3.52-6.04-6.78-4.93-2.94.99-4.52 5.72-.43 6.5q1.76.34.25-.64c-4.34-2.83 1.72-7.21 3.62-3.23q1.64 3.45-2.11 6.47c-6.94 5.58-13.72 7.99-21.66 3.07a.33.33 0 0 0-.41.5q1.25 1.37 3.24 2.08c6.35 2.26 13.44 5.25 14.92 12.61q.1.51.58.3c1.29-.54-1.06-5.33-1.62-6.1-1.19-1.63-3.28-3.03-5.03-4.47q-.69-.56.2-.58Zm-55.7 32.94c-.43-.05-4.07-2.56-4.28-2.45q-.47.25-.14.67c4.32 5.42 12.29 3.18 17.39.11q6.22-3.75 6.21-10.58c-.01-5.89-4.79-10.67-4.67-16.35.15-7.08 6.05-8.7 6.65-14.39q.05-.48-.2-.89c-3.1-5.04-11.75-5.13-16.45-3.81a.29.29 0 0 0 .1.56c4.22-.29 13.5-.43 15.1 4.22q.17.49-.09.94c-2.95 5.08-7.52 8.16-6.64 15.04.45 3.48 3.18 7.69 3.52 11.18.85 9.03-7.6 16.71-16.5 15.75Zm-3.98-43.61c-.21 3.08 6.62 9.8 7.82 13.58a.64.64 0 0 0 1.22 0l4.83-14.73a.66.66 0 0 0-.59-.87q-6.46-.42-12.68 1.29a.81.81 0 0 0-.6.73Zm85.58 17.5c-5.55 2.56-11.32.22-15.25-4.07a.85.85 0 0 1 .22-1.32q6.37-3.46 8.5-10.38.05-.17-.12-.22-.14-.05-.3-.1-.4-.14-.55.25-3.13 8.02-11.22 11.04-.73.27-.19.84c4.54 4.81 13.11 9.82 19.18 5.13q.79-.61.38-1.05-.28-.29-.65-.12Zm-97.59 1.9c-.69-6.54-.97-11.35 4-16.9q1.16-1.29-.38-.49c-5.97 3.11-6.3 12.08-4.09 17.51q.65 1.6.47-.12Zm92.43-11.23q.05-.53 1.1-.44.51.04.96.28l1.4.74q1.28.68.54-.57l-3.5-5.95q-.47-.79-.66.11-1 4.84-4.44 8.47a2.33 2.33 0 0 0 .48 3.59c5.86 3.59 12.57-3.32 4.52-5.63q-.45-.13-.4-.6Zm-28.46 5.09q.33-.02.52-.29l.17-.22q.23-.32-.14-.47-4.26-1.62-7.35-5.03a.5.49-77.6 0 0-.82.53l2.16 5.31q.25.6.9.55l4.56-.38Zm5.53 11.2a.42.42 0 0 1 .78.13q.25 1.7 1.67 2.7.45.31.89 0c4.14-2.95.63-12-4.18-12.45-2.79-.26-8.25 2.51-11.11 3.6a1.45 1.45 0 0 1-1.89-.88l-3.11-9.1a.51.51 0 0 0-.97.01c-2.16 7.06-2.16 13.61 5.9 16.49 6.54 2.34 14.21 4.65 19.59 7.99q15.04 9.32 17.69 28.07a.53.53 0 0 0 1.02.09c1.64-4.97-6.63-32.02 6.43-27.05q.73.28.62-.5l-2.15-14.62a.55.54 49.2 0 0-1.06-.08c-1.63 5.43-9.58 4.46-13.31 2.74-1.05-.49-2.12-1.42-3.31-2.03q-.56-.28-.52.35c.94 13.88-15.85 9.82-12.98 4.54Zm-25.13 15.4c-5.27 4.22-11.77 8.63-15.59 13.4-9.29 11.61-7.61 27.99 2.79 37.92 3.32 3.16 13.98 8.9 16.77 2.33 1.81-4.27-4.92-6.62-5.35-1.62q-.08.99.59.25l1.32-1.46q.32-.35.77-.23c.72.17 1.09.97 1.01 1.71-.64 5.92-10.6.63-12.66-1.66q-11.15-12.36-5.84-28.26c3.19-9.55 9.9-14.57 17.1-20.66 6.42-5.43 3.61-12.02-1.89-16.8q-.1-.09-.2 0l-.21.21q-.22.23-.01.47c3.97 4.62 6.52 10.3 1.4 14.4Zm55.89-.59q.25-.46.76-.65.54-.19.81-.71.87-1.72-.91-2.83a1.61 1.61 0 0 0-2.35.81c-.4 1.09-.56 2.5-.28 3.74q1.34 6 1.45 11.75a.49.49 0 0 0 .97.07l1.88-11.8q.16-.98-.75-.57l-1.23.57q-.74.34-.35-.38Zm-39.74 21.74a.29.28-81.5 0 1 .43-.32c7.12 4.62 18.14-1.63 16.01-10.34-1.05-4.34-6.53-6.1-10.66-7.65-4.38-1.64-6.83-3.74-9.32-7.35-.1-.15-.4-.25-.54-.2q-.28.11-.15.39 3.23 6.7 8.86 8.46c4.82 1.5 11.2 3.57 10.32 8.9-1.43 8.64-9.15 9.25-15.82 6.27a.64.64 0 0 0-.89.74q1.68 6.91 7.43 8.41c8.91 2.31 17.12-4.8 18.72-13.53.58-3.13-.35-6.35-1.08-9.52q-.38-1.67.55-.23c3.14 4.87 4.66 13.56 5.23 19.3a.33.33 0 0 0 .38.3c1.5-.2-.82-11.39-1.2-12.75q-1.71-6.24-6.15-10.98a.41.41 0 0 0-.69.38c2.22 8.33-.1 19.44-8.71 23.04-3.53 1.47-11.27 1.55-12.72-3.32Zm5.19-7.4q-1.21-1.4-2.85-1.87-.45-.13-.86.08c-6.83 3.59 4.24 10.19 8.42 2.35.92-1.72-.52-3.7-2.08-4.5-6.85-3.54-11.77-5.72-15.02-12.46q-.34-.71-.85-.12L109 66.45q-.38.43-.35 1c.17 3.68-1.33 7.15-1.62 10.12-.98 10.09-.94 26.85 7.78 34.16q.4.34.93.31l10.09-.64a.43.42-28.6 0 0 .23-.76c-6.85-4.99 4.19-12.42 7.41-5.47q.86 1.87-.55.37-1.86-1.97-4.12-.78-.58.3-.56.96.09 2.34 2.06 3.23c10.65 4.82 15.29-8.35 13.56-16.32a.62.62 0 0 0-1.11-.23c-4.29 5.96-11.64 9.3-18.77 7.04-7.47-2.37-12.36-10.79-8.33-18.17 2.19-4 6.46-4.74 8.79-.24q.12.23-.14.22-.15 0-.32.01-.12.02-.2-.07Zm-70.8 9.92q-2.87-8.9-.76-17.93a.69.69 0 0 1 1.15-.34c6.15 5.84 19.23 4.84 26.94 2.12q1.88-.67-.1-.48-5.76.55-11.44 1.23c-4.78.57-17.54-2.07-16.09-9.99a.35.35 0 0 0-.64-.24c-9.62 16.65-1.89 35.74 14.89 43.69 2.65 1.26 13.3 11.77 14.59 11.31q.49-.17.1-.5-5.32-4.67-10.33-9.69c-3.69-3.7-8.98-4.81-12.19-9.04q-5.41-7.12-2.45-16.58c.74-2.33 3.2-5.01 5.88-4.16 4.15 1.31 1.12 8.23-2.61 4.9q-.33-.29-.62.04c-1.02 1.16 3.11 2.79 5.34.93 5.41-4.5-3.81-12.24-8.81-5.3q-2.99 4.15-2.2 9.86.03.17-.14.23l-.24.08q-.2.06-.27-.14ZM42.42 76.95l-.23.23q-.31.31-.52-.07-.47-.86-1.38-.87-.55-.01-.41.52c1.97 7.83 6.74 20.3 12.85 25.82q.14.12.18-.06.04-.15.12-.31.16-.37-.09-.69-8.38-10.59-8.52-23.5-.04-3.32-1.73-5.41-.5-.62-1.03-.03l-1.08 1.21q-.58.65.07 1.24l1.76 1.6q.18.15.01.32Zm58.44-2.09q-6.11 6.27-9.6 13.34c-6.73 13.65 4.09 21.5 16.13 22.98q.79.09.31-.54-1.32-1.73-3.49-2.26a1.64 1.63 16.3 0 1-1.17-2.13c4.16-12.01-6.56-19.17-1.03-30.58q1.92-3.97-1.15-.81Zm30.56 37.35a.34.34 0 0 1 .13.61q-7.95 5.38-17.29 7.64-.5.12-.49-.4c.31-9.77-14.12-9.78-14.5-2.31q-.03.53.5.49.37-.03.51-.45c2.27-6.59 11.15-4.46 11.51 2.59q.03.44-.16.83l-.37.78q-.42.87.53.68 12.9-2.57 23.5-10.41a.34.34 0 0 0-.21-.61q-6.26.15-8.73-5.55a.45.45 0 0 0-.73-.14c-1.99 2.06 4.19 5.96 5.8 6.25ZM205.103 56.418a13.63 13.34-18 0 1-8.84 16.9 13.63 13.34-18 0 1-17.086-8.476 13.63 13.34-18 0 1 8.84-16.9 13.63 13.34-18 0 1 17.086 8.476Zm-19.734 14.576a12.39 10.81 123.4 0 0 15.846-4.393 12.39 10.81 123.4 0 0-2.204-16.295 12.39 10.81 123.4 0 0-15.846 4.393 12.39 10.81 123.4 0 0 2.204 16.295Z"/><path fill="#231f20" d="M209.75 50.26V72.5q0 .5-.5.5h-1.1q-.61 0-.61-.6l-.01-22.92q0-.96.95-.97c3.22-.06 8.15-.69 10.72 1.91 3.32 3.37.51 7.75-3.55 8.73a.8.8 0 0 0-.47 1.23l8.24 11.77a.56.56 0 0 1-.51.88l-1.01-.1q-.48-.05-.74-.45l-8.66-13.05q-.33-.5.27-.52c8.57-.4 7.66-10.2-2.51-9.22q-.51.05-.51.57Z"/><rect width="2.28" height="24.42" x="224.98" y="48.53" fill="#231f20" rx=".31"/><path fill="#231f20" d="M240.76 59.58c4.13.57 7.17 4.31 5.42 8.39-2.19 5.08-8.79 5.42-14.27 4.79q-.42-.05-.42-.47l-.02-23.28q0-.54.55-.53c2.96.1 6.41-.47 9.5 1 4.59 2.17 3.65 7.24-.89 9.07a.54.54 0 0 0 .13 1.03Zm-6.56-.82c10.32 1.62 10.95-11.87.09-8.76q-.54.16-.54.72v7.51q0 .46.45.53Zm2.01 13.26c11.95-.37 10.26-13.78-2.08-12.18q-.5.06-.49.56l.16 9.32a2.34 2.34 0 0 0 2.41 2.3ZM250.76 60.33c.01 1.4-.76 9.33.96 11.25q.38.42.95.42h8q.59 0 1.09-.3l.81-.48q.64-.38.66.37c.06 2.29-12.15 1.41-14.06 1.39q-.44 0-.44-.45l-.01-23.51q0-.52.51-.52h10.89q.63 0 .63.63v.25q0 .57-.56.55l-8.6-.23q-.67-.01-.67.66v7.6q0 .54.54.54h6.98q.35 0 .47.33c.69 1.8-7.28.79-7.41.78q-.74-.02-.74.72Z"/></svg>